<svg xmlns="http://www.w3.org/2000/svg" enable-background="new 0 0 1000 1000" viewBox="0 0 1000 1000" id="bathroom"><path fill="#d0edf5" d="M0 0h1000v1000H0z"></path><path fill="none" stroke="#3b6b7d" stroke-linecap="round" stroke-linejoin="round" stroke-miterlimit="10" stroke-width="10" d="M452.136 774.577h79.194M417.345 774.577h12.659"></path><g opacity=".23"><path fill="none" stroke="#474747" stroke-linecap="round" stroke-linejoin="round" stroke-miterlimit="10" stroke-width="6" d="M606.905 394.447v30.931h-61.862M668.767 425.378h-61.862v-30.931M575.974 425.378h61.862v30.931h-61.862zM624.482 487.24h-17.577v-30.931h61.862M545.043 456.309h61.862v30.931h-50.163M523.956 425.378h52.018v30.931h-30.931"></path><path fill="none" stroke="#474747" stroke-linecap="round" stroke-linejoin="round" stroke-miterlimit="10" stroke-width="6" d="M682.478 456.309h-44.642v-30.931h21.443"></path></g><g opacity=".23"><path fill="none" stroke="#474747" stroke-linecap="round" stroke-linejoin="round" stroke-miterlimit="10" stroke-width="6" d="M860.113 567.587v30.931h-61.862M921.975 598.518h-61.862v-30.931M829.182 598.518h61.862v30.931h-61.862z"></path><path fill="none" stroke="#474747" stroke-linecap="round" stroke-linejoin="round" stroke-miterlimit="10" stroke-width="6" d="M877.69 660.38h-17.577v-30.931h61.862M798.251 629.449h61.862v30.931H809.95"></path><path fill="none" stroke="#474747" stroke-linecap="round" stroke-linejoin="round" stroke-miterlimit="10" stroke-width="6" d="M777.164 598.518h52.018v30.931h-30.931M935.686 629.449h-44.642v-30.931h21.443"></path></g><g opacity=".23"><path fill="none" stroke="#474747" stroke-linecap="round" stroke-linejoin="round" stroke-miterlimit="10" stroke-width="6" d="M119.116 522.604v30.93H57.254M180.978 553.534h-61.862v-30.93M88.185 553.534h61.862v30.931H88.185zM136.693 615.396h-17.577v-30.93h61.862M57.254 584.466h61.862v30.93H68.953M36.167 553.534h52.018v30.932H57.254M194.688 584.466h-44.641v-30.932h21.443"></path></g><path fill="none" stroke="#3b6b7d" stroke-linecap="round" stroke-linejoin="round" stroke-miterlimit="10" stroke-width="10" d="M618 726h284.948M148.333 726H548M119 726h6.5M75.78 726H100"></path><path fill="#f2cfb1" d="M475.209 560.479c-10.292 0-19.163 6.068-23.243 14.819l-5.507-1.219a33.197 33.197 0 0 0 4.358-16.48c0-18.428-14.939-33.367-33.367-33.367-11.798 0-22.158 6.129-28.091 15.371-5.933-9.242-16.293-15.371-28.091-15.371a33.219 33.219 0 0 0-20.2 6.814c-4.639-16.878-20.084-29.281-38.435-29.281-17.494 0-32.345 11.273-37.714 26.947a33.327 33.327 0 0 0-16.96-4.613c-18.502 0-33.5 14.998-33.5 33.5 0 .034.002.066.003.1-.757-.06-1.52-.1-2.293-.1-15.749 0-28.517 12.767-28.517 28.517v50.117h317.193v-50.117c.001-14.158-11.477-25.637-25.636-25.637z"></path><g opacity=".58"><path fill="#f2cfb1" d="M475.209 560.479c-10.292 0-19.163 6.068-23.243 14.819l-1.242-.275a33.176 33.176 0 0 1-4.265 14.056l5.507 1.219c4.08-8.751 12.951-14.819 23.243-14.819 14.159 0 25.637 11.478 25.637 25.637v-15c0-14.158-11.478-25.637-25.637-25.637zM212.17 572.6c.773 0 1.536.04 2.293.1 0-.033-.003-.066-.003-.1 0-18.502 14.998-33.5 33.5-33.5 6.19 0 11.984 1.686 16.96 4.613 5.369-15.674 20.22-26.947 37.714-26.947 18.351 0 33.796 12.403 38.435 29.281a33.213 33.213 0 0 1 20.2-6.814c11.798 0 22.158 6.129 28.091 15.371 5.933-9.242 16.293-15.371 28.091-15.371 15.839 0 29.091 11.041 32.504 25.843.553-2.405.862-4.903.862-7.477 0-18.428-14.939-33.367-33.367-33.367-11.798 0-22.158 6.129-28.091 15.371-5.933-9.242-16.293-15.371-28.091-15.371a33.219 33.219 0 0 0-20.2 6.814c-4.639-16.878-20.084-29.281-38.435-29.281-17.494 0-32.345 11.273-37.714 26.947a33.327 33.327 0 0 0-16.96-4.613c-18.502 0-33.5 14.998-33.5 33.5 0 .034.002.066.003.1-.757-.06-1.52-.1-2.293-.1-15.749 0-28.517 12.767-28.517 28.517v15c.002-15.749 12.769-28.516 28.518-28.516z"></path></g><path fill="none" stroke="#3b6b7d" stroke-linecap="round" stroke-linejoin="round" stroke-miterlimit="10" stroke-width="10" d="M475.209 560.479c-10.292 0-19.163 6.068-23.243 14.819l-5.507-1.219a33.197 33.197 0 0 0 4.358-16.48c0-18.428-14.939-33.367-33.367-33.367-11.798 0-22.158 6.129-28.091 15.371-5.933-9.242-16.293-15.371-28.091-15.371a33.219 33.219 0 0 0-20.2 6.814c-4.639-16.878-20.084-29.281-38.435-29.281-17.494 0-32.345 11.273-37.714 26.947a33.327 33.327 0 0 0-16.96-4.613c-18.502 0-33.5 14.998-33.5 33.5 0 .034.002.066.003.1-.757-.06-1.52-.1-2.293-.1-15.749 0-28.517 12.767-28.517 28.517v50.117h317.193v-50.117c.001-14.158-11.477-25.637-25.636-25.637z"></path><path fill="#eaeaea" d="M515 572H143v24c5.523 0 10 4.477 10 10v50c0 28.719 22.951 52 51.67 52h248c28.6 0 52.33-23.4 52.33-52v-50c0-5.523 4.477-10 10-10v-24z"></path><path fill="#c6c6c6" d="M153 606v3.5h352V606c0-5.523 4.477-10 10-10v-24H143v24c5.523 0 10 4.477 10 10z"></path><path fill="none" stroke="#3b6b7d" stroke-linecap="round" stroke-linejoin="round" stroke-miterlimit="10" stroke-width="10" d="M515 572H143v24h0c5.523 0 10 4.477 10 10v50c0 28.719 22.951 52 51.67 52h248c28.6 0 52.33-23.4 52.33-52v-50c0-5.523 4.477-10 10-10h0v-24z"></path><path fill="#d8d8d8" d="M143 572h372v24H143z"></path><path fill="none" stroke="#3b6b7d" stroke-linecap="round" stroke-linejoin="round" stroke-miterlimit="10" stroke-width="10" d="M449 596h-18.5M413.07 596H143v-24h372v24h-52"></path><path fill="#c6c6c6" d="M466 717a9 9 0 0 1-9 9H200a9 9 0 0 1-9-9 9 9 0 0 1 9-9h257a9 9 0 0 1 9 9z"></path><path fill="none" stroke="#3b6b7d" stroke-linecap="round" stroke-linejoin="round" stroke-miterlimit="10" stroke-width="10" d="M466 717a9 9 0 0 1-9 9H200a9 9 0 0 1-9-9h0a9 9 0 0 1 9-9h257a9 9 0 0 1 9 9h0z"></path><path fill="none" stroke="#3b6b7d" stroke-linecap="round" stroke-linejoin="round" stroke-miterlimit="10" stroke-width="12" d="M269.614 277.151c-8.945-15.489-25.682-25.912-44.854-25.912-28.586 0-51.76 23.174-51.76 51.76v266"></path><path fill="#87d1e8" d="M317.973 304.418c-.845-10.408-6.566-20.856-18.56-28.027a20.958 20.958 0 0 0-8.956-2.881c-30.845-2.636-47.018 26.252-35.836 48.612a33.402 33.402 0 0 0 7.755 10.098l55.597-27.802z"></path><path fill="none" stroke="#3b6b7d" stroke-linecap="round" stroke-linejoin="round" stroke-miterlimit="10" stroke-width="10" d="M317.973 304.418c-.845-10.408-6.566-20.856-18.56-28.027a20.958 20.958 0 0 0-8.956-2.881c-30.845-2.636-47.018 26.252-35.836 48.612a33.402 33.402 0 0 0 7.755 10.098l55.597-27.802z"></path><circle cx="327.844" cy="452.093" r="11.249" fill="#f2cfb1"></circle><circle cx="327.844" cy="452.093" r="11.249" fill="none" stroke="#3b6b7d" stroke-linecap="round" stroke-linejoin="round" stroke-miterlimit="10" stroke-width="10"></circle><circle cx="392.833" cy="463.986" r="20.236" fill="#f2cfb1"></circle><circle cx="392.833" cy="463.986" r="20.236" fill="none" stroke="#3b6b7d" stroke-linecap="round" stroke-linejoin="round" stroke-miterlimit="10" stroke-width="10"></circle><path fill="none" stroke="#3b6b7d" stroke-linecap="round" stroke-linejoin="round" stroke-miterlimit="10" stroke-width="13" d="M195 500h-19.875"></path><path fill="none" stroke="#3b6b7d" stroke-linecap="round" stroke-linejoin="round" stroke-miterlimit="10" stroke-width="10" d="M206.667 508H191.25v-16h15.417a8 8 0 0 1 8 8h0a8 8 0 0 1-8 8z"></path><path fill="#3b6b7d" d="M206.667 508H191.25v-16h15.417a8 8 0 0 1 0 16z"></path><path fill="none" stroke="#3b6b7d" stroke-linecap="round" stroke-linejoin="round" stroke-miterlimit="10" stroke-width="4" d="m298.871 381.204-13.024-46.24M313.438 320.438l28.812 34.312M321.583 364.703l11.343 20.223M301 328.005l13.407 23.903"></path><path fill="#ef9e9d" d="M692.667 523h140v55h-140z"></path><path fill="#ef9e9d" d="M692.667 523h140v12.5h-140z" opacity=".39"></path><path fill="#ef9e9d" d="M692.667 578h140v55h-140z"></path><path fill="#ef9e9d" d="M692.667 577.75h140v12.5h-140z" opacity=".39"></path><path fill="#ef9e9d" d="M692.667 633h140v55h-140z"></path><path fill="#ef9e9d" d="M692.667 633.75h140v12.5h-140z" opacity=".39"></path><path fill="none" stroke="#3b6b7d" stroke-linecap="round" stroke-linejoin="round" stroke-miterlimit="10" stroke-width="10" d="M692.667 523h140v165h-140z"></path><path fill="none" stroke="#3b6b7d" stroke-linecap="round" stroke-linejoin="round" stroke-miterlimit="10" stroke-width="10" d="M692.667 523h140v55h-140zM692.667 578h140v55h-140zM692.667 633h140v55h-140zM744.667 541h36M744.667 596h36M744.667 651h36"></path><path fill="#3b6b7d" d="M714.85 726h-13.167l15.167-38h26z"></path><path fill="none" stroke="#3b6b7d" stroke-linecap="round" stroke-linejoin="round" stroke-miterlimit="10" stroke-width="10" d="M714.85 726h-13.167l15.167-38h26zM813.9 726h13.167L811.9 688h-26z"></path><path fill="#3b6b7d" d="M813.9 726h13.167L811.9 688h-26z"></path><path fill="#87d1e8" d="M755.667 448h14v42.667h-14z"></path><path fill="none" stroke="#3b6b7d" stroke-linecap="round" stroke-linejoin="round" stroke-miterlimit="10" stroke-width="10" d="M755.667 448h14v42.667h-14z"></path><circle cx="762.667" cy="503" r="18" fill="#87d1e8"></circle><circle cx="762.667" cy="503" r="18" fill="none" stroke="#3b6b7d" stroke-linecap="round" stroke-linejoin="round" stroke-miterlimit="10" stroke-width="10"></circle><path fill="none" stroke="#3b6b7d" stroke-linecap="round" stroke-linejoin="round" stroke-miterlimit="10" stroke-width="10" d="m777.164 492.333 12.418-12.418M785.942 472.5l11.004 11.004"></path><path fill="#87d1e8" d="M778.337 458.5h-31.341c-3.678 0-6.223-3.675-4.928-7.118l4.546-12.092c2.311-6.147 8.775-10.29 16.053-10.29 7.278 0 13.741 4.143 16.053 10.29l4.546 12.092c1.294 3.443-1.25 7.118-4.929 7.118z"></path><path fill="none" stroke="#3b6b7d" stroke-linecap="round" stroke-linejoin="round" stroke-miterlimit="10" stroke-width="10" d="M778.337 458.5h-31.341c-3.678 0-6.223-3.675-4.928-7.118l4.546-12.092c2.311-6.147 8.775-10.29 16.053-10.29h0c7.278 0 13.741 4.143 16.053 10.29l4.546 12.092c1.294 3.443-1.25 7.118-4.929 7.118z"></path><path fill="#dd8a8a" d="M679.667 503h166v20h-166z"></path><path fill="none" stroke="#3b6b7d" stroke-linecap="round" stroke-linejoin="round" stroke-miterlimit="10" stroke-width="10" d="M679.667 503h166v20h-166z"></path><path fill="#bbeaf2" d="M682.667 224h160v192h-160z"></path><path fill="#92d7e7" d="M682.667 401.987h160V416h-160z" opacity=".52"></path><path fill="#92d7e7" d="M682.667 224h160v14.107h-160z" opacity=".48"></path><path fill="none" stroke="#3b6b7d" stroke-linecap="round" stroke-linejoin="round" stroke-miterlimit="10" stroke-width="10" d="M682.667 224h160v192h-160zM659 416h207.333"></path><path fill="#d3b379" d="M800.083 357.667h24.833V416h-24.833z"></path><path fill="none" stroke="#3b6b7d" stroke-linecap="round" stroke-linejoin="round" stroke-miterlimit="10" stroke-width="10" d="M800.083 357.667h24.833V416h-24.833z"></path><path fill="#d0edf5" d="M813.5 333h-2a6.417 6.417 0 0 0-6.417 6.417v18.25h14.833v-18.25A6.416 6.416 0 0 0 813.5 333z"></path><path fill="none" stroke="#3b6b7d" stroke-linecap="round" stroke-linejoin="round" stroke-miterlimit="10" stroke-width="10" d="M813.5 333h-2a6.417 6.417 0 0 0-6.417 6.417v18.25h14.833v-18.25A6.416 6.416 0 0 0 813.5 333z"></path><path fill="none" stroke="#3b6b7d" stroke-linecap="round" stroke-linejoin="round" stroke-miterlimit="10" stroke-width="6" d="m710.744 310.281 43-43M764.315 297.831l38.75-38.75M722.982 339.164l26.995-26.995"></path><path fill="none" stroke="#3b6b7d" stroke-linecap="round" stroke-linejoin="round" stroke-miterlimit="10" stroke-width="12" d="M440.093 238.107h149.643"></path><path fill="#87d1e8" d="M413.07 224h27.024v28.213H413.07z"></path><path fill="none" stroke="#3b6b7d" stroke-linecap="round" stroke-linejoin="round" stroke-miterlimit="10" stroke-width="10" d="M413.07 224h27.024v28.213H413.07z"></path><path fill="#87d1e8" d="M589.736 224h27.024v28.213h-27.024z"></path><path fill="none" stroke="#3b6b7d" stroke-linecap="round" stroke-linejoin="round" stroke-miterlimit="10" stroke-width="10" d="M589.736 224h27.024v28.213h-27.024z"></path><path fill="#fff" d="M457 224h118v170.987H457z"></path><path fill="#d8d8d8" d="M457 224h118v18.511H457z" opacity=".84"></path><path fill="none" stroke="#3b6b7d" stroke-linecap="round" stroke-linejoin="round" stroke-miterlimit="10" stroke-width="10" d="M457 224h118v170.987H457z"></path><path fill="none" stroke="#3b6b7d" stroke-linecap="round" stroke-linejoin="round" stroke-miterlimit="10" stroke-width="8" d="M566.5 408.987v-14M552.5 408.987v-14M538.5 408.987v-14M524.5 408.987v-14M510.5 408.987v-14M496.5 408.987v-14M482.5 408.987v-14M468.5 408.987v-14"></path><path fill="none" stroke="#3b6b7d" stroke-linecap="round" stroke-linejoin="round" stroke-miterlimit="10" stroke-width="10" d="M457 363.667h118"></path><path fill="none" stroke="#3b6b7d" stroke-linecap="round" stroke-linejoin="round" stroke-miterlimit="10" stroke-width="6" d="M500 227.24v100.765M539.667 227.24V292"></path></svg>