<svg width="700" height="550" viewBox="0 0 700 550" fill="none" xmlns="http://www.w3.org/2000/svg">
<g clip-path="url(#clip0_126_89)">
<rect width="700" height="550" fill="#FFAEAE"/>
<path d="M205.801 189.586H480.202V429.133H205.801V189.586Z" fill="#D07C2A"/>
<path d="M566.728 158.26C595.431 182.973 590.815 237.434 579.706 269.26C576.75 277.723 559.203 327.982 517.044 340.432C472.959 353.452 453.071 310.038 394.674 308.726C329.584 307.263 316.714 360.348 260.851 359.296C199.221 358.134 116.194 291.661 120.746 205.307C124.294 138.03 180.07 76.325 233.072 73.897C292.77 71.164 302.375 145.77 385.418 166.465C471.533 187.925 527.058 124.106 566.728 158.26Z" fill="#EDF2FA"/>
<path d="M205.801 189.586H480.202V429.133H205.801V189.586Z" fill="#D07C2A"/>
<path d="M430.999 409.696H414.504V366.128C414.504 344.785 406.026 324.317 390.934 309.225C375.842 294.133 355.374 285.655 334.031 285.655C312.688 285.655 292.22 294.133 277.128 309.225C262.036 324.317 253.558 344.785 253.558 366.128V409.696H237.063V366.128C237.063 340.41 247.279 315.746 265.464 297.561C283.649 279.376 308.313 269.16 334.031 269.16C359.749 269.16 384.413 279.376 402.598 297.561C420.783 315.746 430.999 340.41 430.999 366.128V409.696Z" fill="#BF6D2B"/>
<path d="M331.95 77.403C325.622 90.143 371.627 138.758 431.317 145.596C462.753 149.198 505.163 142.033 506.329 130.009C508.69 105.657 342.385 56.396 331.95 77.403Z" fill="#EDF2FA"/>
<path d="M604.516 470.337C604.351 485.559 490.266 496.667 349.703 495.146C209.136 493.626 95.32 480.053 95.483 464.831C95.649 449.609 209.733 438.502 350.299 440.023C490.863 441.544 604.681 455.116 604.516 470.337Z" fill="#E4EBF1"/>
<path d="M431.722 409.696H254.28V366.92C254.28 355.269 256.575 343.732 261.033 332.968C265.492 322.204 272.027 312.424 280.266 304.185C288.504 295.947 298.284 289.412 309.048 284.953C319.812 280.495 331.349 278.2 343 278.2C354.651 278.2 366.188 280.494 376.952 284.953C387.717 289.411 397.497 295.946 405.736 304.185C413.974 312.423 420.51 322.204 424.968 332.968C429.427 343.732 431.722 355.269 431.722 366.92V409.696Z" fill="#3D1A0C"/>
<path d="M430.999 409.696H253.558V366.92C253.558 343.39 262.905 320.823 279.544 304.185C296.182 287.547 318.748 278.199 342.278 278.199C365.809 278.199 388.375 287.547 405.013 304.185C421.652 320.823 430.999 343.39 430.999 366.92V409.696Z" fill="#3D1A0C"/>
<path d="M430.999 410.092H253.558V366.524C253.558 342.994 262.905 320.427 279.544 303.789C296.182 287.151 318.748 277.803 342.278 277.803C365.809 277.803 388.375 287.151 405.013 303.789C421.652 320.427 430.999 342.994 430.999 366.524V410.092Z" fill="#A05325"/>
<path d="M480.202 213.851V211.684H459.847V189.586H457.68V211.684H416.505V189.586H414.338V211.684H373.164V189.586H370.996V211.684H329.824V189.586H327.656V211.684H286.482V189.586H284.314V211.684H243.141V189.586H240.973V211.684H205.801V213.851H213.933V236.398H205.801V238.566H240.973V261.114H205.801V263.282H213.933V285.829H205.801V287.996H240.973V310.544H205.801V312.711H213.933V335.259H205.801V337.426H240.973V359.974H205.801V362.142H213.933V384.69H205.801V386.858H240.973V409.405H205.801V411.573H213.933V429.133H216.101V411.573H257.274V429.133H259.441V411.573H300.614V429.133H302.782V411.573H343.956V429.133H346.124V411.573H387.297V429.133H389.464V411.573H430.638V429.133H432.805V411.573H473.979V429.133H476.146V411.573H480.202V409.405H459.847V386.858H480.202V384.69H476.146V362.142H480.202V359.974H459.847V337.426H480.202V335.26H476.146V312.712H480.202V310.544H459.847V287.996H480.202V285.829H476.146V263.282H480.202V261.114H459.847V238.566H480.202V236.398H476.146V213.851H480.202ZM389.464 213.851H430.637V236.4H389.464V213.851ZM389.464 263.282H430.637V285.829H389.464V263.282ZM389.464 312.712H430.637V335.259H389.464V312.712ZM389.464 362.142H430.637V384.69H389.464V362.142ZM300.614 384.69H259.441V362.142H300.614V384.69ZM300.614 335.26H259.441V312.71H300.614V335.26ZM300.614 285.829H259.441V263.282H300.614V285.829ZM346.124 213.851H387.297V236.4H346.124V213.851ZM346.124 263.282H387.297V285.829H346.124V263.282ZM346.124 312.712H387.297V335.259H346.124V312.712ZM346.124 362.142H387.297V384.69H346.124V362.142ZM302.782 362.142H343.956V384.69H302.782V362.142ZM329.824 337.426H370.996V359.974H329.824V337.426ZM343.956 335.259H302.782V312.711H343.956V335.259ZM329.824 287.996H370.996V310.544H329.824V287.996ZM343.956 285.829H302.782V263.282H343.956V285.829ZM329.824 238.566H370.996V261.114H329.824V238.566ZM343.956 236.398H302.782V213.85H343.956V236.398ZM300.614 236.398H259.441V213.85H300.614V236.398ZM327.656 261.114H286.482V238.566H327.656V261.114ZM327.656 310.544H286.482V287.996H327.656V310.544ZM327.656 359.974H286.482V337.426H327.656V359.974ZM327.656 409.404H286.482V386.857H327.656V409.404ZM329.824 386.858H370.996V409.406H329.824V386.858ZM373.164 386.858H414.337V409.406H373.164V386.858ZM373.164 337.426H414.337V359.974H373.164V337.426ZM373.164 287.996H414.337V310.544H373.164V287.996ZM373.164 238.566H414.337V261.114H373.164V238.566ZM216.101 213.851H257.274V236.4H216.1L216.101 213.851ZM243.141 238.566H284.314V261.114H243.141V238.566ZM216.101 263.282H257.274V285.829H216.1L216.101 263.282ZM243.141 287.996H284.314V310.544H243.141V287.996ZM216.101 312.711H257.274V335.259H216.1L216.101 312.711ZM243.141 337.426H284.314V359.974H243.141V337.426ZM216.101 362.142H257.274V384.69H216.1L216.101 362.142ZM243.141 386.858H284.314V409.406H243.141V386.858ZM457.68 409.405H416.506V386.857H457.68V409.405ZM473.979 384.69H432.806V362.142H473.979V384.69ZM457.68 359.974H416.506V337.426H457.68V359.974ZM473.979 335.26H432.806V312.712H473.979V335.26ZM457.68 310.544H416.506V287.996H457.68V310.544ZM473.979 285.829H432.806V263.282H473.979V285.829ZM457.68 261.114H416.506V238.566H457.68V261.114ZM473.979 236.398H432.806V213.85H473.979V236.398Z" fill="#BC6A3B"/>
<path d="M253.658 362.142C253.694 361.415 253.761 360.696 253.816 359.974H243.141V337.426H258.867C259.145 336.7 259.426 335.975 259.723 335.26H259.441V312.71H273.911C274.568 311.976 275.239 311.254 275.921 310.543H254.647C254.141 311.259 253.644 311.981 253.157 312.71H257.273V335.259H242.13C241.721 336.471 241.336 337.693 240.973 338.925V359.973H237.278C237.233 360.693 237.192 361.417 237.164 362.141L253.658 362.142ZM243.141 386.858H253.557V384.69H237.063V386.858H240.973V409.406H237.063V409.697H253.557V409.406H243.141V386.858ZM387.297 285.158V285.828H346.124V269.94C345.401 269.85 344.684 269.738 343.956 269.663V285.827H339.068C343.857 286.123 348.61 286.849 353.27 287.995H370.997V294.682C371.725 295.06 372.448 295.444 373.165 295.845V287.995H391.375C390.042 287.014 388.683 286.069 387.297 285.158ZM413.415 310.544H392.139C392.822 311.254 393.492 311.977 394.148 312.712H414.905C414.418 311.983 413.921 311.26 413.415 310.544ZM284.314 302.92C285.027 302.354 285.75 301.799 286.482 301.258V287.996H314.792C319.452 286.85 324.205 286.125 328.994 285.828H302.782V274.356C302.06 274.602 301.33 274.833 300.614 275.097V285.828H279.732C278.703 286.532 277.688 287.254 276.687 287.996H284.314V302.92ZM416.505 409.405V386.857H431V366.128C430.993 364.075 430.921 362.023 430.784 359.974H416.506V337.426H426.662C426.436 336.696 426.177 335.982 425.932 335.259H408.339C408.637 335.975 408.918 336.701 409.196 337.426H414.338V359.974H414.247C414.302 360.697 414.369 361.415 414.404 362.142H430.639V384.689H414.506V409.696H431V409.406L416.505 409.405Z" fill="#A55C36"/>
<path d="M316.65 409.696H368.288C377.351 399.71 382.383 391.519 379.028 376.426C375.227 359.315 360.651 355.514 360.651 355.514C361.542 359.078 360.205 360.832 358.533 361.69C357.456 362.208 356.243 362.372 355.067 362.157C353.891 361.943 352.814 361.362 351.989 360.497C343.431 351.918 350.511 341.571 350.511 341.571C346.506 340.963 342.418 341.858 339.033 344.084C329.159 350.713 331.373 362.637 334.033 370.089C337.203 378.961 331.5 378.961 331.5 378.961C317.558 378.961 317.558 365.018 317.558 365.018C305.518 367.554 304.883 377.693 304.883 377.693C304.02 395.816 311.674 405.413 316.65 409.696Z" fill="#F39821"/>
<path d="M335.936 409.696H357.123C373.981 396.909 371.045 384.756 368.846 379.906C368.737 379.667 368.57 379.459 368.36 379.301C368.15 379.143 367.903 379.04 367.643 379.002C367.383 378.964 367.118 378.991 366.871 379.082C366.624 379.173 366.404 379.324 366.231 379.522C358.826 387.991 349.65 379.481 346.074 377.693C343.126 376.218 343.226 383.896 343.421 387.414C343.554 389.334 343.089 391.249 342.089 392.894C340.427 395.536 337.004 397.794 330.232 392.902C322.033 386.982 320.055 389.572 319.591 391.498C319.442 392.144 319.429 392.815 319.554 393.466C322.325 408.769 335.936 409.696 335.936 409.696Z" fill="#FFCB5D"/>
<path d="M342.587 393.209L341.591 392.58C342.529 391.04 342.962 389.245 342.832 387.447C342.509 381.57 343.062 378.117 344.477 377.19C344.754 377.013 345.075 376.917 345.404 376.913C345.733 376.909 346.056 376.996 346.338 377.166C346.955 377.475 347.708 377.959 348.578 378.519C352.828 381.252 359.936 385.826 365.788 379.134L366.675 379.909C360.153 387.366 352.208 382.255 347.941 379.51C347.098 378.968 346.371 378.5 345.811 378.22C345.379 378.003 345.201 378.124 345.123 378.175C344.367 378.671 343.677 381.351 344.008 387.382C344.153 389.425 343.657 391.462 342.588 393.209H342.587Z" fill="#303443"/>
<path d="M323.895 346.008C323.895 346.008 319.053 338.138 325.339 335.416C325.486 335.355 325.645 335.33 325.804 335.343C325.962 335.355 326.116 335.405 326.251 335.489C326.267 335.497 326.281 335.507 326.296 335.516C326.852 335.85 327.322 336.31 327.668 336.859C328.013 337.408 328.226 338.031 328.287 338.676C328.348 339.322 328.257 339.974 328.021 340.578C327.784 341.182 327.409 341.722 326.926 342.155C325.727 343.279 324.705 344.578 323.895 346.008ZM370.936 339.16C370.936 339.16 377.444 341.723 374.876 346.231C374.815 346.335 374.729 346.422 374.628 346.487C374.526 346.551 374.41 346.59 374.29 346.601L374.25 346.604C373.761 346.654 373.268 346.59 372.809 346.414C372.35 346.239 371.938 345.959 371.608 345.595C371.277 345.232 371.036 344.796 370.905 344.323C370.773 343.849 370.755 343.352 370.851 342.87C371.065 341.645 371.094 340.394 370.936 339.16ZM385.824 366.65C385.824 366.65 394.271 369.977 390.938 375.826C390.858 375.961 390.747 376.074 390.615 376.158C390.482 376.241 390.332 376.292 390.176 376.306C390.159 376.308 390.142 376.31 390.125 376.311C389.491 376.376 388.85 376.292 388.255 376.064C387.659 375.837 387.125 375.473 386.696 375.001C386.267 374.53 385.955 373.964 385.784 373.35C385.613 372.736 385.589 372.09 385.714 371.465C385.993 369.875 386.03 368.251 385.824 366.65ZM298.832 386.729C298.832 386.729 290.472 383.445 293.503 377.685C293.575 377.553 293.679 377.441 293.805 377.358C293.931 377.276 294.075 377.226 294.225 377.212C294.242 377.212 294.258 377.209 294.276 377.208C294.904 377.154 295.537 377.242 296.126 377.468C296.715 377.693 297.245 378.049 297.676 378.509C298.108 378.969 298.43 379.52 298.617 380.123C298.805 380.725 298.853 381.361 298.759 381.985C298.546 383.561 298.57 385.16 298.832 386.729Z" fill="#FFCB5D"/>
<path d="M205.801 183.481H480.202V198.817H205.801V183.481Z" fill="#A05325"/>
<path d="M370.996 189.586H373.164V198.819H370.996V189.586ZM414.338 189.586H416.506V198.819H414.338V189.586ZM327.656 189.586H329.824V198.819H327.656V189.586ZM240.973 189.586H243.141V198.819H240.973V189.586ZM284.314 189.586H286.482V198.819H284.314V189.586ZM457.68 189.586H459.848V198.819H457.68V189.586Z" fill="#843F1D"/>
<path d="M183.853 409.696H502.15V439.169H183.853V409.696Z" fill="#BC6A3B"/>
<path d="M183.853 429.514H502.15V458.986H183.853V429.514Z" fill="#A05325"/>
<path d="M161.801 438.772H524.202V468.245H161.801V438.772Z" fill="#BC6A3B"/>
<path d="M354.161 438.183H502.148V439.361H354.161V438.183Z" fill="#303443"/>
<path d="M342.279 277.803C335.633 277.807 329.009 278.556 322.53 280.037C342.121 284.513 359.613 295.506 372.143 311.217C384.672 326.929 391.498 346.428 391.502 366.524V410.092H430.999V366.524C430.999 342.994 421.651 320.428 405.013 303.79C388.375 287.152 365.809 277.803 342.279 277.803Z" fill="#843F1D"/>
<path d="M416.505 409.405V386.857H431V366.524C430.995 364.74 430.937 362.956 430.825 361.175C430.802 360.775 430.764 360.376 430.735 359.975H416.506V337.426H426.093C425.998 337.15 425.909 336.869 425.81 336.592C425.691 336.262 425.574 335.93 425.452 335.599C425.409 335.486 425.36 335.374 425.318 335.259H389.465V312.712H412.8C412.244 311.981 411.676 311.258 411.097 310.545H373.165V287.997H383.563C383.311 287.864 383.056 287.737 382.805 287.607C381.8 287.089 380.786 286.59 379.763 286.11C379.559 286.014 379.35 285.923 379.145 285.83H346.123V277.9C345.403 277.87 344.68 277.859 343.956 277.846V285.829H339.621C341.116 286.512 342.588 287.235 344.037 287.997H370.997V309.837C371.782 310.78 372.546 311.738 373.291 312.712H387.297V335.26H385.815C386.086 335.979 386.348 336.701 386.602 337.427H414.337V359.975H391.247C391.298 360.695 391.352 361.417 391.387 362.142H430.637V384.689H391.502V386.857H414.337V409.405H391.502V410.092H430.999V409.405H416.505Z" fill="#6D3316"/>
<path d="M439.246 409.696H422.752V366.128C422.752 344.785 414.274 324.316 399.182 309.225C384.09 294.133 363.621 285.654 342.279 285.654C320.936 285.654 300.467 294.133 285.375 309.225C270.284 324.316 261.805 344.785 261.805 366.128V409.696H245.31V366.128C245.31 340.41 255.526 315.746 273.711 297.561C291.896 279.376 316.561 269.16 342.278 269.16C367.996 269.16 392.66 279.376 410.845 297.561C429.03 315.746 439.246 340.41 439.246 366.128V409.696Z" fill="#924922"/>
<path d="M294.995 301.776L294.295 300.828C301.833 295.264 310.282 291.055 319.265 288.392L319.6 289.522C310.749 292.146 302.422 296.293 294.995 301.776Z" fill="#303443"/>
<path d="M183.853 160.112H502.15V189.585H183.853V160.112Z" fill="#BC6A3B"/>
<path d="M235.205 188.997H312.346V190.175H235.205V188.997Z" fill="#303443"/>
<path d="M209.552 63.333H215.443V92.488H209.552V63.333ZM225.22 63.333H231.111V92.488H225.22V63.333ZM245.431 63.333H251.322V92.488H245.431V63.333ZM265.704 63.333H271.595V92.488H265.704V63.333ZM281.31 63.333H287.201V92.488H281.31V63.333Z" fill="#FDEBA9"/>
<path d="M212.45 54.715C212.45 54.715 216.953 59.428 213.018 62.235C212.926 62.2989 212.819 62.3399 212.708 62.3545C212.597 62.3691 212.484 62.3569 212.378 62.319L212.343 62.306C211.91 62.1575 211.518 61.9094 211.198 61.5818C210.879 61.2541 210.641 60.8561 210.503 60.4196C210.365 59.9831 210.332 59.5204 210.406 59.0687C210.48 58.617 210.659 58.1889 210.928 57.819C211.588 56.8665 212.101 55.8201 212.45 54.715ZM248.329 54.715C248.329 54.715 252.832 59.428 248.897 62.235C248.805 62.2989 248.698 62.3399 248.587 62.3545C248.476 62.3691 248.363 62.3569 248.257 62.319L248.222 62.306C247.789 62.1575 247.397 61.9094 247.077 61.5818C246.758 61.2541 246.52 60.8561 246.382 60.4196C246.244 59.9831 246.211 59.5204 246.285 59.0687C246.359 58.617 246.538 58.1889 246.807 57.819C247.468 56.8668 247.981 55.8203 248.329 54.715ZM284.208 54.715C284.208 54.715 288.711 59.428 284.776 62.235C284.684 62.2989 284.577 62.3399 284.466 62.3545C284.355 62.3691 284.242 62.3569 284.136 62.319L284.101 62.306C283.668 62.1575 283.276 61.9094 282.956 61.5818C282.637 61.2541 282.399 60.8561 282.261 60.4196C282.123 59.9831 282.09 59.5204 282.164 59.0687C282.238 58.617 282.417 58.1889 282.686 57.819C283.347 56.867 283.86 55.8205 284.208 54.715ZM228.213 54.715C228.213 54.715 223.71 59.428 227.645 62.235C227.737 62.299 227.843 62.34 227.955 62.3546C228.066 62.3692 228.179 62.357 228.285 62.319L228.32 62.306C228.753 62.1575 229.145 61.9094 229.464 61.5818C229.784 61.2541 230.022 60.8561 230.16 60.4196C230.297 59.9831 230.331 59.5204 230.257 59.0687C230.183 58.617 230.004 58.1889 229.735 57.819C229.074 56.867 228.561 55.8205 228.213 54.715ZM268.696 54.715C268.696 54.715 264.195 59.428 268.128 62.235C268.22 62.2989 268.326 62.3399 268.438 62.3545C268.549 62.3691 268.662 62.3569 268.768 62.319L268.804 62.306C269.237 62.1575 269.629 61.9094 269.948 61.5818C270.268 61.2541 270.506 60.8561 270.644 60.4196C270.781 59.9831 270.815 59.5204 270.741 59.0687C270.667 58.617 270.488 58.1889 270.219 57.819C269.558 56.8666 269.045 55.8202 268.696 54.715Z" fill="#FFCB5D"/>
<path d="M398.332 63.333H404.223V92.488H398.332V63.333ZM414.001 63.333H419.892V92.488H414.001V63.333ZM434.212 63.333H440.103V92.488H434.212V63.333ZM454.485 63.333H460.376V92.488H454.485V63.333ZM470.091 63.333H475.982V92.488H470.091V63.333Z" fill="#FDEBA9"/>
<path d="M401.23 54.715C401.23 54.715 405.733 59.428 401.798 62.235C401.706 62.2989 401.599 62.3399 401.488 62.3545C401.377 62.3691 401.264 62.3569 401.158 62.319L401.123 62.306C400.69 62.1575 400.298 61.9094 399.978 61.5818C399.659 61.2541 399.421 60.8561 399.283 60.4196C399.145 59.9831 399.112 59.5204 399.186 59.0687C399.26 58.617 399.439 58.1889 399.708 57.819C400.369 56.8668 400.882 55.8203 401.23 54.715ZM437.11 54.715C437.11 54.715 441.613 59.428 437.678 62.235C437.586 62.2989 437.479 62.3399 437.368 62.3545C437.257 62.3691 437.144 62.3569 437.038 62.319L437.003 62.306C436.57 62.1575 436.178 61.9094 435.858 61.5818C435.539 61.2541 435.301 60.8561 435.163 60.4196C435.025 59.9831 434.992 59.5204 435.066 59.0687C435.14 58.617 435.319 58.1889 435.588 57.819C436.249 56.8668 436.762 55.8203 437.11 54.715ZM472.99 54.715C472.99 54.715 477.492 59.428 473.557 62.235C473.465 62.299 473.358 62.34 473.247 62.3546C473.136 62.3692 473.023 62.357 472.917 62.319L472.882 62.306C472.449 62.1575 472.057 61.9094 471.737 61.5818C471.418 61.2541 471.18 60.8561 471.042 60.4196C470.904 59.9831 470.871 59.5204 470.945 59.0687C471.019 58.617 471.198 58.1889 471.467 57.819C472.128 56.867 472.642 55.8205 472.99 54.715ZM416.993 54.715C416.993 54.715 412.49 59.428 416.425 62.235C416.517 62.299 416.623 62.34 416.735 62.3546C416.846 62.3692 416.959 62.357 417.065 62.319L417.1 62.306C417.533 62.1575 417.925 61.9094 418.244 61.5818C418.564 61.2541 418.802 60.8561 418.94 60.4196C419.077 59.9831 419.111 59.5204 419.037 59.0687C418.963 58.617 418.784 58.1889 418.515 57.819C417.854 56.867 417.341 55.8205 416.993 54.715ZM457.477 54.715C457.477 54.715 452.975 59.428 456.909 62.235C457.001 62.2989 457.108 62.3399 457.219 62.3545C457.331 62.3691 457.444 62.3569 457.55 62.319L457.584 62.306C458.017 62.1576 458.409 61.9096 458.729 61.582C459.048 61.2544 459.287 60.8564 459.424 60.4199C459.562 59.9834 459.596 59.5206 459.522 59.0689C459.448 58.6171 459.269 58.189 459 57.819C458.34 56.8665 457.827 55.8201 457.478 54.715" fill="#FFCB5D"/>
<path d="M235.205 240.15C243.131 230.64 235.205 217.073 235.205 217.073C235.205 217.073 227.279 230.639 235.205 240.15Z" fill="#516EB5"/>
<path d="M235.22 218.86C235.56 218.861 235.898 218.919 236.22 219.031L236.094 216.931H234.316L234.19 219.041C234.52 218.921 234.869 218.86 235.22 218.859" fill="#1B202B"/>
<path d="M263.622 229.596C271.549 220.086 263.622 206.519 263.622 206.519C263.622 206.519 255.697 220.085 263.622 229.596Z" fill="#82C56D"/>
<path d="M263.636 208.305C263.977 208.306 264.316 208.364 264.638 208.477L264.512 206.377H262.734L262.608 208.486C262.938 208.368 263.286 208.307 263.636 208.306" fill="#1B202B"/>
<path d="M275.923 213.886C283.849 204.376 275.923 190.809 275.923 190.809C275.923 190.809 267.996 204.375 275.923 213.886Z" fill="#F15B43"/>
<path d="M275.937 192.596C276.278 192.597 276.616 192.655 276.938 192.768L276.812 190.667H275.033L274.908 192.777C275.238 192.658 275.586 192.596 275.937 192.596Z" fill="#1B202B"/>
<path d="M292.888 231.046C300.815 221.536 292.888 207.969 292.888 207.969C292.888 207.969 284.963 221.536 292.888 231.046Z" fill="#FFCB5D"/>
<path d="M292.903 209.756C293.244 209.757 293.582 209.815 293.903 209.928L293.779 207.828H291.999L291.873 209.938C292.203 209.818 292.552 209.757 292.903 209.756Z" fill="#1B202B"/>
<path d="M320.458 240.221C328.384 230.711 320.458 217.144 320.458 217.144C320.458 217.144 312.533 230.711 320.458 240.221Z" fill="#516EB5"/>
<path d="M320.472 218.93C320.813 218.932 321.151 218.99 321.473 219.102L321.347 217.002H319.568L319.443 219.112C319.773 218.993 320.121 218.931 320.472 218.93Z" fill="#1B202B"/>
<path d="M348.876 229.596C356.802 220.086 348.876 206.519 348.876 206.519C348.876 206.519 340.95 220.085 348.876 229.596Z" fill="#82C56D"/>
<path d="M348.89 208.305C349.231 208.306 349.569 208.364 349.891 208.477L349.765 206.377H347.986L347.861 208.486C348.191 208.367 348.539 208.307 348.89 208.306" fill="#1B202B"/>
<path d="M207.636 231.046C215.561 221.536 207.636 207.969 207.636 207.969C207.636 207.969 199.709 221.536 207.636 231.046Z" fill="#FFCB5D"/>
<path d="M207.65 209.756C207.991 209.757 208.329 209.815 208.651 209.928L208.525 207.828H206.745L206.621 209.938C206.951 209.818 207.299 209.757 207.65 209.756Z" fill="#1B202B"/>
<path d="M190.67 211.96C198.595 202.45 190.67 188.883 190.67 188.883C190.67 188.883 182.744 202.449 190.67 211.96Z" fill="#F15B43"/>
<path d="M190.683 190.67C191.024 190.671 191.363 190.728 191.685 190.841L191.559 188.741H189.781L189.655 190.851C189.985 190.732 190.332 190.671 190.683 190.67Z" fill="#1B202B"/>
<path d="M406.246 240.15C414.173 230.64 406.246 217.073 406.246 217.073C406.246 217.073 398.32 230.639 406.246 240.15Z" fill="#516EB5"/>
<path d="M406.26 218.86C406.601 218.861 406.939 218.919 407.26 219.031L407.135 216.931H405.357L405.231 219.041C405.561 218.921 405.909 218.86 406.26 218.859" fill="#1B202B"/>
<path d="M434.664 229.596C442.589 220.086 434.664 206.519 434.664 206.519C434.664 206.519 426.738 220.085 434.664 229.596Z" fill="#82C56D"/>
<path d="M434.677 208.305C435.018 208.306 435.357 208.364 435.679 208.477L435.553 206.377H433.773L433.649 208.486C433.979 208.368 434.327 208.307 434.677 208.306" fill="#1B202B"/>
<path d="M477.762 230.72C485.688 221.21 477.762 207.644 477.762 207.644C477.762 207.644 469.836 221.209 477.762 230.72Z" fill="#FFCB5D"/>
<path d="M477.777 209.43C478.118 209.431 478.456 209.49 478.777 209.603L478.652 207.502H476.872L476.747 209.611C477.078 209.492 477.426 209.432 477.777 209.431" fill="#1B202B"/>
<path d="M447.298 212.031C455.225 202.521 447.298 188.954 447.298 188.954C447.298 188.954 439.372 202.521 447.298 212.031Z" fill="#F15B43"/>
<path d="M447.312 190.74C447.653 190.741 447.991 190.8 448.313 190.913L448.187 188.813H446.409L446.283 190.921C446.613 190.802 446.961 190.741 447.312 190.74Z" fill="#1B202B"/>
<path d="M378.677 231.046C386.603 221.536 378.677 207.969 378.677 207.969C378.677 207.969 370.75 221.536 378.677 231.046Z" fill="#FFCB5D"/>
<path d="M378.69 209.756C379.031 209.757 379.37 209.815 379.692 209.928L379.566 207.828H377.787L377.662 209.938C377.992 209.818 378.34 209.757 378.691 209.756" fill="#1B202B"/>
<path d="M361.71 211.96C369.636 202.45 361.71 188.883 361.71 188.883C361.71 188.883 353.785 202.449 361.71 211.96Z" fill="#F15B43"/>
<path d="M361.724 190.67C362.065 190.671 362.404 190.728 362.726 190.841L362.6 188.741H360.82L360.696 190.851C361.026 190.732 361.373 190.671 361.724 190.67Z" fill="#1B202B"/>
<path d="M498.175 211.96C506.101 202.45 498.175 188.883 498.175 188.883C498.175 188.883 490.249 202.449 498.175 211.96Z" fill="#F15B43"/>
<path d="M498.189 190.67C498.53 190.671 498.868 190.728 499.19 190.841L499.064 188.741H497.286L497.16 190.851C497.49 190.732 497.838 190.671 498.189 190.67Z" fill="#1B202B"/>
<path d="M497.324 190.456C495.321 195.746 493.511 200.728 488.984 204.499C485.666 207.265 481.595 208.973 477.297 209.403C472.998 209.834 468.67 208.967 464.869 206.914C458.164 203.174 453.02 195.664 447.922 190.066C447.826 189.973 447.709 189.902 447.582 189.86C447.455 189.817 447.32 189.804 447.186 189.821C447.053 189.838 446.926 189.885 446.813 189.958C446.7 190.031 446.606 190.128 446.536 190.243C442.04 196.59 437.553 202.579 431.026 207.035C425.959 210.441 420.265 212.804 414.275 213.985C408.286 215.167 402.12 215.143 396.14 213.915C381.421 210.885 371.93 201.415 361.8 191.244C361.703 191.151 361.587 191.081 361.46 191.039C361.332 190.997 361.197 190.984 361.064 191.001C360.931 191.018 360.803 191.064 360.691 191.137C360.578 191.21 360.483 191.308 360.413 191.422C356.102 197.508 351.839 203.362 345.639 207.718C335.891 214.54 323.881 217.323 312.126 215.484C296.297 212.958 286.589 202.539 276.548 191.244C276.452 191.15 276.335 191.079 276.208 191.037C276.08 190.994 275.945 190.981 275.812 190.998C275.678 191.015 275.55 191.062 275.438 191.136C275.325 191.209 275.231 191.307 275.161 191.422C270.848 197.508 266.585 203.362 260.385 207.718C250.637 214.539 238.627 217.322 226.873 215.484C210.944 212.941 201.259 202.277 191.294 190.82C190.546 189.96 189.302 191.214 190.044 192.068C197.437 200.57 204.296 209.094 214.91 213.768C222.521 217.082 230.864 218.359 239.118 217.475C247.372 216.59 255.255 213.574 261.991 208.723C266.848 205.018 271.06 200.537 274.458 195.46C275.089 194.569 275.673 193.579 276.379 192.747C276.212 192.943 275.326 191.909 276.065 193.355C277.137 195.457 279.755 197.507 281.324 199.272C290.801 209.933 302.634 217.091 317.202 217.755C325.147 218.055 333.043 216.382 340.183 212.884C347.323 209.386 353.485 204.173 358.117 197.711C359.251 196.163 360.393 194.593 361.457 192.995C362.157 191.944 360.437 192.562 360.881 192.825C361.818 193.578 362.669 194.432 363.419 195.372C366.991 198.96 370.461 202.812 374.446 205.951C386.869 215.732 404.245 219.196 419.386 214.545C426.18 212.447 432.418 208.858 437.646 204.039C440.108 201.73 442.338 199.185 444.304 196.441C445.451 194.871 446.457 192.571 447.93 191.321C446.512 192.524 446.862 190.678 447.91 192.671C448.645 193.686 449.491 194.616 450.433 195.443L456.197 201.772C460.299 206.276 464.887 209.799 471.038 210.937C474.405 211.538 477.864 211.395 481.17 210.519C484.477 209.643 487.552 208.054 490.18 205.865C494.93 201.871 496.907 196.53 499.027 190.925C499.43 189.859 497.723 189.401 497.324 190.456Z" fill="#303443"/>
<path d="M226.864 390.6H183.654C183.898 390.53 184.18 390.43 184.487 390.31L182.362 390.506C182.399 390.544 182.441 390.575 182.487 390.6H181.787C181.833 390.575 181.876 390.543 181.913 390.506L179.786 390.31C180.095 390.43 180.376 390.53 180.62 390.6H137.41V405.445H141.207V468.22H223.067V405.445H226.864V390.6Z" fill="#BC6A3B"/>
<path d="M183.653 409.695C183.898 409.623 184.179 409.523 184.487 409.405L182.361 409.601C182.399 409.638 182.441 409.67 182.487 409.695H181.787C181.833 409.67 181.875 409.638 181.912 409.601L179.786 409.405C180.094 409.523 180.376 409.623 180.621 409.695H141.207V468.22H223.067V409.695H183.653Z" fill="#A05325"/>
<path d="M505.44 390.627H587.299V468.246H505.44V390.627Z" fill="#FFCC5D"/>
<path d="M505.44 394.231H587.299V409.077H505.44V394.231Z" fill="#F39821"/>
<path d="M536.12 440.039C536.581 440.028 537.02 439.837 537.343 439.507C537.665 439.176 537.846 438.733 537.846 438.271C537.846 437.81 537.665 437.366 537.343 437.036C537.02 436.706 536.581 436.515 536.12 436.504C535.658 436.515 535.22 436.706 534.897 437.036C534.575 437.366 534.394 437.81 534.394 438.271C534.394 438.733 534.575 439.176 534.897 439.507C535.22 439.837 535.658 440.028 536.12 440.039ZM568.354 443.715C568.812 443.7 569.247 443.507 569.566 443.177C569.884 442.847 570.063 442.407 570.063 441.948C570.063 441.489 569.884 441.049 569.566 440.719C569.247 440.389 568.812 440.196 568.354 440.181C567.896 440.196 567.461 440.389 567.142 440.719C566.824 441.049 566.645 441.489 566.645 441.948C566.645 442.407 566.824 442.847 567.142 443.177C567.461 443.507 567.896 443.7 568.354 443.715ZM579.382 423.074C579.843 423.063 580.282 422.872 580.605 422.542C580.927 422.211 581.108 421.768 581.108 421.306C581.108 420.845 580.927 420.402 580.605 420.071C580.282 419.741 579.843 419.55 579.382 419.539C578.921 419.55 578.482 419.741 578.159 420.071C577.837 420.402 577.656 420.845 577.656 421.306C577.656 421.768 577.837 422.211 578.159 422.542C578.482 422.872 578.921 423.063 579.382 423.074ZM522.83 464.074C523.288 464.059 523.723 463.866 524.042 463.536C524.36 463.206 524.539 462.766 524.539 462.307C524.539 461.848 524.36 461.408 524.042 461.078C523.723 460.748 523.288 460.555 522.83 460.54C522.372 460.555 521.937 460.748 521.618 461.078C521.3 461.408 521.121 461.848 521.121 462.307C521.121 462.766 521.3 463.206 521.618 463.536C521.937 463.866 522.372 464.059 522.83 464.074ZM519.436 416.252C519.665 416.244 519.882 416.148 520.042 415.983C520.201 415.818 520.29 415.598 520.29 415.368C520.29 415.139 520.201 414.919 520.042 414.754C519.882 414.589 519.665 414.493 519.436 414.485C519.207 414.493 518.99 414.589 518.83 414.754C518.671 414.919 518.582 415.139 518.582 415.368C518.582 415.598 518.671 415.818 518.83 415.983C518.99 416.148 519.207 416.244 519.436 416.252ZM523.112 433.217C523.341 433.209 523.558 433.113 523.718 432.948C523.877 432.783 523.966 432.563 523.966 432.333C523.966 432.104 523.877 431.884 523.718 431.719C523.558 431.554 523.341 431.458 523.112 431.45C522.883 431.458 522.666 431.554 522.506 431.719C522.347 431.884 522.258 432.104 522.258 432.333C522.258 432.563 522.347 432.783 522.506 432.948C522.666 433.113 522.883 433.209 523.112 433.217ZM516.325 449.336C516.559 449.336 516.784 449.243 516.95 449.077C517.116 448.911 517.209 448.686 517.209 448.452C517.209 448.217 517.116 447.993 516.95 447.827C516.784 447.661 516.559 447.568 516.325 447.568C516.091 447.568 515.866 447.661 515.7 447.827C515.534 447.993 515.441 448.217 515.441 448.452C515.441 448.686 515.534 448.911 515.7 449.077C515.866 449.243 516.091 449.336 516.325 449.336ZM552.803 416.252C553.032 416.244 553.249 416.148 553.409 415.983C553.568 415.818 553.657 415.598 553.657 415.368C553.657 415.139 553.568 414.919 553.409 414.754C553.249 414.589 553.032 414.493 552.803 414.485C552.574 414.493 552.357 414.589 552.197 414.754C552.038 414.919 551.949 415.139 551.949 415.368C551.949 415.598 552.038 415.818 552.197 415.983C552.357 416.148 552.574 416.244 552.803 416.252ZM552.803 432.652C553.032 432.644 553.249 432.548 553.409 432.383C553.568 432.218 553.657 431.998 553.657 431.768C553.657 431.539 553.568 431.319 553.409 431.154C553.249 430.989 553.032 430.893 552.803 430.885C552.574 430.893 552.357 430.989 552.197 431.154C552.038 431.319 551.949 431.539 551.949 431.768C551.949 431.998 552.038 432.218 552.197 432.383C552.357 432.548 552.574 432.644 552.803 432.652ZM555.913 451.315C556.147 451.315 556.372 451.222 556.538 451.056C556.704 450.89 556.797 450.665 556.797 450.431C556.797 450.196 556.704 449.972 556.538 449.806C556.372 449.64 556.147 449.547 555.913 449.547C555.679 449.547 555.454 449.64 555.288 449.806C555.122 449.972 555.029 450.196 555.029 450.431C555.029 450.665 555.122 450.89 555.288 451.056C555.454 451.222 555.679 451.315 555.913 451.315ZM540.078 458.384C540.312 458.384 540.537 458.291 540.703 458.125C540.869 457.959 540.962 457.734 540.962 457.5C540.962 457.265 540.869 457.041 540.703 456.875C540.537 456.709 540.312 456.616 540.078 456.616C539.844 456.616 539.619 456.709 539.453 456.875C539.287 457.041 539.194 457.265 539.194 457.5C539.194 457.734 539.287 457.959 539.453 458.125C539.619 458.291 539.844 458.384 540.078 458.384ZM572.596 459.798C572.83 459.798 573.055 459.705 573.221 459.539C573.387 459.373 573.48 459.148 573.48 458.914C573.48 458.679 573.387 458.455 573.221 458.289C573.055 458.123 572.83 458.03 572.596 458.03C572.362 458.03 572.137 458.123 571.971 458.289C571.805 458.455 571.712 458.679 571.712 458.914C571.712 459.148 571.805 459.373 571.971 459.539C572.137 459.705 572.362 459.798 572.596 459.798ZM537.25 430.85C544.073 430.85 544.085 420.246 537.25 420.246C530.428 420.246 530.416 430.849 537.25 430.849M528.767 456.016C535.59 456.016 535.602 445.412 528.767 445.412C521.945 445.412 521.933 456.016 528.767 456.016ZM563.547 427.456C570.37 427.456 570.381 416.853 563.547 416.853C556.724 416.853 556.713 427.456 563.547 427.456ZM581.032 444.423C587.855 444.423 587.865 433.819 581.032 433.819C574.208 433.819 574.197 444.423 581.032 444.423ZM560.154 467.515C566.977 467.515 566.988 456.911 560.154 456.911C553.331 456.911 553.319 467.515 560.154 467.515ZM512.462 431.51C519.284 431.51 519.296 420.906 512.462 420.906C505.639 420.906 505.627 431.51 512.462 431.51ZM544.602 390.627H548.137V468.245H544.602V390.627Z" fill="#F15B43"/>
<path d="M502.101 390.626H590.637V405.471H502.101V390.626Z" fill="#F15B43"/>
<path d="M546.296 391.94C545.109 391.789 543.959 391.431 542.896 390.882C540.204 389.676 537.387 388.774 534.496 388.192C531.72 387.558 528.864 387.349 526.026 387.571C524.636 387.707 523.259 387.958 521.909 388.319C520.253 388.891 518.462 388.947 516.773 388.479C516.121 388.277 515.491 388.009 514.892 387.681C513.957 388.308 512.913 388.755 511.814 388.998C510.829 389.196 509.814 389.193 508.83 388.991C507.845 388.789 506.912 388.392 506.084 387.822C505.955 387.734 505.846 387.621 505.761 387.491C505.676 387.36 505.618 387.214 505.59 387.061C505.562 386.907 505.565 386.75 505.598 386.598C505.632 386.446 505.695 386.302 505.784 386.174C505.873 386.047 505.987 385.938 506.119 385.855C506.25 385.771 506.397 385.715 506.551 385.689C506.704 385.662 506.861 385.667 507.013 385.702C507.165 385.737 507.308 385.801 507.435 385.892C507.996 386.279 508.628 386.55 509.296 386.687C509.963 386.825 510.651 386.827 511.319 386.694C511.824 386.58 512.315 386.409 512.781 386.184C511.317 384.85 510.406 383.207 510.779 381.756C510.98 381.088 511.396 380.505 511.961 380.096C512.527 379.688 513.212 379.477 513.909 379.496C514.317 379.537 514.712 379.661 515.071 379.86C515.429 380.06 515.742 380.331 515.992 380.656C516.824 381.677 517.228 382.981 517.121 384.294C517.061 384.861 516.882 385.409 516.597 385.903C516.877 386.028 517.165 386.135 517.459 386.223C518.741 386.568 520.1 386.5 521.342 386.031C522.806 385.641 524.299 385.372 525.807 385.224C527.571 385.06 529.346 385.073 531.107 385.264C530.035 384.586 529.077 383.742 528.268 382.766C525.104 378.643 524.163 375.821 525.39 374.144C526.814 372.194 530.314 372.962 532.822 373.708C539.87 375.805 543.639 381.706 545.891 385.233C547.546 387.825 548.856 389.878 547.729 391.262C547.714 391.281 547.699 391.3 547.682 391.318C547.514 391.52 547.301 391.681 547.061 391.789C546.821 391.897 546.559 391.948 546.296 391.94ZM528.426 375.261C527.51 375.261 527.306 375.515 527.293 375.534C527.285 375.545 526.609 376.733 530.138 381.333C531.516 383.13 536.305 386.118 545.335 388.873C544.919 388.09 544.306 387.13 543.905 386.501C541.695 383.041 538.355 377.814 532.155 375.967C530.95 375.561 529.696 375.324 528.426 375.261ZM513.73 381.846C513.586 381.867 513.449 381.923 513.332 382.01C513.215 382.097 513.122 382.212 513.061 382.344C512.944 382.796 513.542 383.759 514.593 384.647C514.691 384.459 514.754 384.255 514.778 384.044C514.818 383.368 514.607 382.701 514.187 382.17C514.082 382.014 513.927 381.9 513.747 381.847L513.73 381.846Z" fill="#F15B43"/>
<path d="M547.762 391.938C547.499 391.947 547.238 391.896 546.998 391.789C546.758 391.682 546.545 391.522 546.376 391.321C546.359 391.3 546.34 391.279 546.324 391.258C545.207 389.872 546.515 387.823 548.169 385.233C550.42 381.706 554.189 375.805 561.232 373.71C563.742 372.962 567.242 372.195 568.668 374.143C569.894 375.819 568.953 378.64 565.791 382.766C564.982 383.743 564.024 384.586 562.952 385.264C564.713 385.073 566.488 385.059 568.252 385.224C569.76 385.372 571.253 385.642 572.717 386.031C573.959 386.502 575.317 386.569 576.6 386.224C576.893 386.135 577.181 386.028 577.461 385.904C577.177 385.41 576.999 384.862 576.939 384.295C576.83 382.983 577.234 381.679 578.065 380.658C578.314 380.332 578.628 380.061 578.987 379.861C579.345 379.66 579.741 379.536 580.149 379.495C580.846 379.477 581.53 379.689 582.095 380.097C582.66 380.505 583.076 381.087 583.279 381.754C583.652 383.207 582.741 384.85 581.277 386.184C581.744 386.409 582.234 386.58 582.74 386.694C583.409 386.825 584.097 386.821 584.765 386.683C585.433 386.544 586.066 386.275 586.628 385.889C586.755 385.797 586.899 385.73 587.052 385.694C587.204 385.659 587.363 385.653 587.518 385.68C587.672 385.706 587.82 385.763 587.953 385.847C588.085 385.931 588.2 386.041 588.289 386.17C588.379 386.298 588.442 386.444 588.474 386.598C588.506 386.751 588.508 386.91 588.478 387.064C588.449 387.218 588.388 387.364 588.301 387.495C588.214 387.626 588.102 387.737 587.971 387.824C587.143 388.391 586.21 388.786 585.226 388.988C584.243 389.189 583.23 389.193 582.245 388.998C581.145 388.755 580.101 388.309 579.166 387.681C578.568 388.01 577.938 388.277 577.286 388.479C575.598 388.949 573.806 388.893 572.15 388.319C570.8 387.958 569.423 387.707 568.033 387.571C565.195 387.344 562.338 387.553 559.563 388.191C556.671 388.774 553.853 389.676 551.161 390.881C550.099 391.43 548.948 391.787 547.762 391.938ZM565.633 375.261C564.365 375.323 563.112 375.561 561.909 375.966C555.704 377.814 552.365 383.041 550.155 386.501C549.753 387.131 549.141 388.09 548.725 388.871C557.755 386.117 562.543 383.13 563.92 381.333C567.448 376.729 566.774 375.544 566.766 375.533C566.753 375.515 566.549 375.261 565.633 375.261ZM580.328 381.846H580.311C580.131 381.9 579.976 382.015 579.871 382.171C579.451 382.701 579.241 383.368 579.281 384.044C579.305 384.254 579.368 384.459 579.465 384.647C580.515 383.759 581.114 382.795 580.998 382.343C580.936 382.211 580.843 382.097 580.726 382.01C580.609 381.923 580.472 381.867 580.328 381.846Z" fill="#F15B43"/>
<path d="M544.573 405.471H548.072V409.077H544.573V405.471Z" fill="#CF2633"/>
<path d="M132.724 390.6H214.584V468.219H132.724V390.6Z" fill="#F15B43"/>
<path d="M132.723 396.115H214.583V410.96H132.723V396.115Z" fill="#CF2633"/>
<path d="M132.724 429.975H214.583V433.51H132.724V429.975Z" fill="#FFCC5D"/>
<path d="M171.887 390.6H175.422V468.218H171.887V390.6Z" fill="#FFCC5D"/>
<path d="M172.92 391.913C171.733 391.762 170.582 391.404 169.519 390.855C166.827 389.65 164.01 388.747 161.119 388.163C158.344 387.528 155.488 387.32 152.65 387.544C151.26 387.681 149.883 387.931 148.534 388.292C146.877 388.864 145.086 388.921 143.397 388.453C142.745 388.251 142.115 387.984 141.517 387.655C140.582 388.282 139.538 388.729 138.439 388.972C137.454 389.167 136.441 389.164 135.457 388.963C134.474 388.761 133.541 388.366 132.712 387.799C132.455 387.621 132.28 387.348 132.224 387.04C132.169 386.733 132.238 386.416 132.416 386.159C132.594 385.902 132.867 385.727 133.175 385.671C133.482 385.616 133.799 385.685 134.056 385.863C134.618 386.248 135.252 386.518 135.919 386.656C136.587 386.795 137.275 386.799 137.944 386.669C138.449 386.555 138.939 386.384 139.405 386.158C137.941 384.823 137.03 383.182 137.403 381.731C137.599 381.059 138.014 380.472 138.581 380.063C139.149 379.654 139.837 379.445 140.536 379.471C140.943 379.512 141.338 379.636 141.696 379.835C142.053 380.034 142.366 380.304 142.616 380.628C143.448 381.65 143.852 382.955 143.745 384.268C143.685 384.836 143.506 385.384 143.221 385.878C143.501 386.002 143.789 386.109 144.083 386.198C145.365 386.541 146.723 386.474 147.965 386.006C149.429 385.615 150.923 385.345 152.432 385.197C154.196 385.034 155.971 385.048 157.732 385.239C156.66 384.561 155.702 383.718 154.892 382.741C151.731 378.615 150.789 375.794 152.014 374.118C153.441 372.168 156.944 372.937 159.452 373.685C166.492 375.779 170.262 381.68 172.515 385.206C174.169 387.799 175.48 389.85 174.357 391.234C174.342 391.254 174.325 391.274 174.307 391.293C174.138 391.495 173.926 391.656 173.685 391.763C173.445 391.871 173.183 391.922 172.92 391.913ZM155.052 375.235C154.136 375.235 153.931 375.489 153.917 375.508C153.909 375.52 153.235 376.704 156.764 381.308C158.141 383.106 162.93 386.092 171.959 388.846C171.543 388.063 170.931 387.104 170.529 386.474C168.319 383.014 164.979 377.788 158.779 375.942C157.575 375.535 156.321 375.297 155.052 375.235ZM140.354 381.82C140.21 381.841 140.073 381.897 139.956 381.985C139.84 382.072 139.747 382.187 139.686 382.319C139.568 382.769 140.166 383.734 141.217 384.621C141.315 384.434 141.378 384.229 141.402 384.019C141.442 383.343 141.232 382.675 140.811 382.144C140.707 381.989 140.552 381.876 140.373 381.822L140.354 381.82Z" fill="#FFCC5D"/>
<path d="M174.39 391.913C174.127 391.922 173.865 391.871 173.625 391.764C173.384 391.656 173.171 391.496 173.002 391.294C172.985 391.274 172.968 391.256 172.953 391.235C171.826 389.851 173.137 387.799 174.794 385.206C177.047 381.679 180.816 375.779 187.857 373.685C190.365 372.937 193.869 372.168 195.294 374.117C196.522 375.797 195.579 378.617 192.413 382.742C191.605 383.718 190.648 384.561 189.577 385.239C191.337 385.047 193.112 385.033 194.875 385.197C196.384 385.345 197.878 385.616 199.343 386.007C200.586 386.474 201.944 386.54 203.227 386.198C203.52 386.109 203.807 386.002 204.087 385.878C203.801 385.385 203.622 384.837 203.562 384.27C203.454 382.956 203.859 381.65 204.692 380.628C204.942 380.303 205.256 380.033 205.614 379.834C205.972 379.635 206.367 379.511 206.775 379.47C207.471 379.457 208.153 379.67 208.717 380.078C209.282 380.485 209.698 381.065 209.905 381.73C210.278 383.18 209.366 384.823 207.903 386.158C208.369 386.383 208.86 386.554 209.365 386.668C210.034 386.799 210.723 386.795 211.39 386.657C212.058 386.519 212.691 386.249 213.253 385.863C213.51 385.685 213.827 385.616 214.134 385.671C214.442 385.727 214.715 385.902 214.893 386.159C215.071 386.416 215.14 386.733 215.085 387.04C215.029 387.348 214.854 387.621 214.597 387.799C213.768 388.365 212.835 388.761 211.852 388.962C210.869 389.163 209.856 389.167 208.871 388.972C207.771 388.729 206.727 388.283 205.791 387.656C205.193 387.984 204.563 388.251 203.911 388.453C202.222 388.92 200.431 388.864 198.774 388.293C197.424 387.931 196.047 387.681 194.656 387.544C191.818 387.319 188.962 387.528 186.187 388.164C183.297 388.747 180.48 389.65 177.789 390.854C176.726 391.403 175.576 391.762 174.389 391.914L174.39 391.913ZM192.255 375.235C190.987 375.297 189.733 375.535 188.53 375.942C182.33 377.786 178.99 383.014 176.781 386.472C176.379 387.104 175.765 388.063 175.349 388.846C184.381 386.091 189.167 383.104 190.543 381.308C194.075 376.708 193.4 375.518 193.392 375.508C193.378 375.49 193.173 375.235 192.255 375.235ZM206.956 381.82H206.939C206.759 381.874 206.602 381.988 206.497 382.144C206.076 382.676 205.864 383.344 205.904 384.021C205.928 384.231 205.991 384.435 206.09 384.622C207.14 383.734 207.74 382.77 207.622 382.317C207.561 382.185 207.468 382.071 207.352 381.984C207.236 381.897 207.1 381.841 206.956 381.82Z" fill="#FFCC5D"/>
<path d="M171.905 405.446H175.404V410.96H171.905V405.446ZM169.983 429.905H171.905V433.537H169.983V429.905ZM193.382 429.905H195.302V433.537H193.382V429.905Z" fill="#F39821"/>
<path d="M195.327 390.6H198.862V468.218H195.327V390.6Z" fill="#FFCC5D"/>
<path d="M195.345 405.446H198.844V410.96H195.345V405.446Z" fill="#F39821"/>
<path d="M128.927 390.6H218.38V405.446H128.927V390.6Z" fill="#FFCC5D"/>
<path d="M498.333 438.772H505.44V468.245H498.333V438.772Z" fill="#A05325"/>
<path d="M502.149 439.169V409.696L498.333 410.092V438.772L502.149 439.169Z" fill="#A05325"/>
<path d="M478.469 438.183H502.149V439.361H478.469V438.183Z" fill="#303443"/>
<path d="M278.029 92.856V97.19C278.029 97.3461 278.091 97.4958 278.202 97.6062C278.312 97.7166 278.462 97.7787 278.618 97.779H280.827C280.908 97.7794 280.989 97.7963 281.063 97.8287C281.138 97.8611 281.205 97.9082 281.26 97.9673C281.316 98.0264 281.359 98.0962 281.387 98.1725C281.415 98.2487 281.427 98.3299 281.423 98.411C280.334 115.455 267.716 129.191 251.789 130.927C251.706 130.935 251.622 130.926 251.543 130.9C251.464 130.874 251.391 130.831 251.329 130.775C251.268 130.719 251.218 130.651 251.184 130.575C251.151 130.499 251.133 130.416 251.133 130.333V120.413C251.134 120.273 251.184 120.139 251.276 120.034C251.368 119.929 251.495 119.86 251.633 119.841C262.044 118.283 270.209 109.384 271.215 98.314C271.227 98.1685 271.292 98.0327 271.4 97.9336C271.507 97.8345 271.647 97.7793 271.793 97.779H274.758C274.915 97.779 275.065 97.7168 275.175 97.6062C275.286 97.4955 275.348 97.3455 275.348 97.189V92.856C275.348 92.6997 275.285 92.5499 275.175 92.4394C275.064 92.329 274.914 92.267 274.758 92.267H262.541C262.385 92.2672 262.235 92.3295 262.124 92.4401C262.014 92.5507 261.952 92.7007 261.952 92.857V97.19C261.952 97.3463 262.015 97.4961 262.125 97.6065C262.236 97.7169 262.386 97.779 262.542 97.779H265.084C265.168 97.7792 265.251 97.797 265.327 97.8314C265.404 97.8657 265.473 97.9158 265.529 97.9783C265.585 98.0408 265.627 98.1144 265.653 98.1942C265.678 98.2741 265.687 98.3585 265.678 98.442C265.283 102.176 263.74 105.695 261.263 108.517C258.786 111.338 255.495 113.323 251.844 114.198C251.758 114.215 251.668 114.212 251.583 114.191C251.498 114.169 251.418 114.128 251.35 114.072C251.282 114.016 251.228 113.946 251.19 113.866C251.153 113.786 251.134 113.699 251.134 113.611V98.368C251.134 98.2118 251.196 98.0621 251.306 97.9515C251.416 97.8409 251.566 97.7785 251.722 97.778H254.485C254.641 97.778 254.791 97.7161 254.902 97.6059C255.012 97.4957 255.074 97.3461 255.075 97.19V92.856C255.075 92.6997 255.012 92.5499 254.902 92.4394C254.791 92.329 254.641 92.267 254.485 92.267H242.27C242.114 92.267 241.963 92.3291 241.853 92.4398C241.742 92.5504 241.68 92.7005 241.68 92.857V97.19C241.68 97.3463 241.743 97.4961 241.853 97.6065C241.964 97.7169 242.114 97.779 242.27 97.779H245.032C245.188 97.779 245.338 97.841 245.449 97.9514C245.559 98.0619 245.622 98.2117 245.622 98.368V113.612C245.622 113.7 245.603 113.787 245.565 113.867C245.528 113.947 245.473 114.017 245.405 114.074C245.337 114.13 245.257 114.17 245.171 114.191C245.086 114.213 244.997 114.215 244.91 114.198C241.259 113.323 237.968 111.338 235.49 108.517C233.013 105.696 231.471 102.176 231.075 98.442C231.066 98.3586 231.075 98.2743 231.1 98.1945C231.126 98.1147 231.168 98.0411 231.224 97.9786C231.28 97.9161 231.348 97.8661 231.425 97.8317C231.501 97.7973 231.584 97.7793 231.668 97.779H234.272C234.429 97.779 234.579 97.7168 234.689 97.6062C234.8 97.4955 234.862 97.3455 234.862 97.189V92.856C234.862 92.6997 234.799 92.5499 234.689 92.4394C234.578 92.329 234.428 92.267 234.272 92.267H222.058C221.981 92.267 221.904 92.2822 221.832 92.3119C221.761 92.3415 221.696 92.385 221.641 92.4398C221.586 92.4946 221.543 92.5596 221.513 92.6312C221.483 92.7028 221.468 92.7795 221.468 92.857V97.19C221.468 97.3463 221.531 97.4961 221.641 97.6065C221.752 97.7169 221.902 97.779 222.058 97.779H224.96C225.106 97.7795 225.246 97.8348 225.353 97.9339C225.46 98.033 225.525 98.1687 225.537 98.314C226.543 109.384 234.709 118.283 245.121 119.841C245.259 119.86 245.386 119.929 245.478 120.034C245.57 120.139 245.621 120.274 245.621 120.414V130.333C245.621 130.416 245.603 130.499 245.569 130.575C245.535 130.651 245.486 130.72 245.424 130.775C245.362 130.831 245.289 130.874 245.21 130.9C245.131 130.926 245.047 130.935 244.964 130.927C229.038 129.191 216.419 115.455 215.331 98.411C215.327 98.3299 215.339 98.2487 215.367 98.1725C215.395 98.0962 215.438 98.0264 215.494 97.9673C215.549 97.9082 215.617 97.8611 215.691 97.8287C215.766 97.7963 215.846 97.7794 215.927 97.779H218.605C218.761 97.7787 218.911 97.7164 219.022 97.6058C219.132 97.4952 219.194 97.3453 219.194 97.189V92.856C219.194 92.6997 219.131 92.5499 219.021 92.4394C218.91 92.329 218.76 92.267 218.604 92.267H206.39C206.234 92.2672 206.084 92.3295 205.973 92.4401C205.863 92.5507 205.801 92.7007 205.801 92.857V97.19C205.801 97.3463 205.864 97.4961 205.974 97.6065C206.085 97.7169 206.235 97.779 206.391 97.779H209.231C209.38 97.7796 209.524 97.8375 209.632 97.9407C209.74 98.044 209.804 98.1848 209.811 98.334C210.898 118.506 226.045 134.778 245.088 136.474C245.234 136.486 245.369 136.553 245.468 136.66C245.567 136.767 245.623 136.908 245.623 137.054V154.012C245.623 154.089 245.608 154.166 245.578 154.238C245.549 154.31 245.505 154.375 245.451 154.429C245.396 154.484 245.331 154.528 245.259 154.557C245.187 154.587 245.111 154.602 245.033 154.602H242.271C242.115 154.602 241.965 154.664 241.855 154.774C241.744 154.884 241.682 155.034 241.681 155.19V159.524C241.681 159.68 241.744 159.83 241.854 159.941C241.965 160.051 242.115 160.113 242.271 160.113H254.486C254.643 160.113 254.793 160.051 254.903 159.94C255.014 159.83 255.076 159.679 255.076 159.523V155.19C255.076 155.034 255.013 154.884 254.903 154.773C254.792 154.663 254.642 154.601 254.486 154.601H251.723C251.567 154.601 251.417 154.539 251.307 154.428C251.196 154.318 251.134 154.168 251.134 154.012V137.055C251.134 136.909 251.189 136.768 251.288 136.661C251.387 136.554 251.523 136.487 251.668 136.475C270.711 134.778 285.858 118.506 286.944 98.334C286.951 98.1848 287.015 98.044 287.123 97.9407C287.231 97.8375 287.375 97.7796 287.524 97.779H290.833C290.989 97.7787 291.139 97.7164 291.25 97.6058C291.36 97.4952 291.422 97.3453 291.422 97.189V92.856C291.422 92.6997 291.359 92.5499 291.249 92.4394C291.138 92.329 290.988 92.267 290.832 92.267H278.619C278.463 92.267 278.312 92.3291 278.202 92.4398C278.091 92.5504 278.029 92.6995 278.029 92.856ZM466.81 92.856V97.19C466.81 97.3459 466.872 97.4954 466.982 97.6058C467.093 97.7162 467.242 97.7784 467.398 97.779H469.608C469.689 97.7794 469.77 97.7963 469.844 97.8287C469.919 97.8611 469.986 97.9082 470.041 97.9673C470.097 98.0264 470.14 98.0962 470.168 98.1725C470.196 98.2487 470.208 98.3299 470.204 98.411C469.115 115.455 456.497 129.191 440.57 130.927C440.487 130.935 440.403 130.926 440.324 130.9C440.245 130.874 440.172 130.831 440.11 130.775C440.049 130.719 439.999 130.651 439.965 130.575C439.932 130.499 439.914 130.416 439.914 130.333V120.413C439.915 120.273 439.966 120.139 440.057 120.034C440.149 119.929 440.276 119.86 440.414 119.841C450.825 118.283 458.99 109.384 459.996 98.314C460.008 98.1687 460.073 98.033 460.18 97.9339C460.287 97.8348 460.427 97.7795 460.573 97.779H463.539C463.695 97.7787 463.845 97.7164 463.956 97.6058C464.066 97.4952 464.128 97.3453 464.128 97.189V92.856C464.128 92.6997 464.065 92.5499 463.955 92.4394C463.844 92.329 463.694 92.267 463.538 92.267H451.322C451.166 92.2672 451.016 92.3295 450.905 92.4401C450.795 92.5507 450.733 92.7007 450.733 92.857V97.19C450.733 97.3463 450.796 97.4961 450.906 97.6065C451.017 97.7169 451.167 97.779 451.323 97.779H453.865C453.949 97.7793 454.032 97.7973 454.108 97.8317C454.185 97.8661 454.253 97.9161 454.309 97.9786C454.365 98.0411 454.407 98.1147 454.433 98.1945C454.458 98.2743 454.467 98.3586 454.458 98.442C454.063 102.176 452.52 105.695 450.043 108.517C447.566 111.338 444.275 113.323 440.624 114.198C440.538 114.215 440.448 114.212 440.363 114.191C440.278 114.169 440.198 114.128 440.13 114.072C440.062 114.016 440.008 113.946 439.97 113.866C439.933 113.786 439.914 113.699 439.914 113.611V98.368C439.914 98.2117 439.976 98.0617 440.086 97.9511C440.197 97.8405 440.347 97.7782 440.503 97.778H443.266C443.422 97.7777 443.572 97.7157 443.682 97.6055C443.792 97.4953 443.855 97.3459 443.855 97.19V92.856C443.855 92.6997 443.793 92.5499 443.682 92.4394C443.571 92.329 443.421 92.267 443.265 92.267H431.05C430.894 92.2672 430.744 92.3295 430.633 92.4401C430.523 92.5507 430.461 92.7007 430.461 92.857V97.19C430.461 97.3463 430.524 97.4961 430.634 97.6065C430.745 97.7169 430.895 97.779 431.051 97.779H433.813C433.969 97.779 434.119 97.841 434.23 97.9514C434.34 98.0619 434.403 98.2117 434.403 98.368V113.612C434.403 113.7 434.384 113.787 434.346 113.867C434.309 113.947 434.254 114.017 434.186 114.074C434.118 114.13 434.038 114.17 433.952 114.191C433.867 114.213 433.778 114.215 433.691 114.198C430.039 113.323 426.749 111.339 424.271 108.517C421.793 105.696 420.251 102.176 419.855 98.442C419.846 98.3584 419.855 98.274 419.881 98.194C419.906 98.114 419.949 98.0404 420.005 97.9779C420.061 97.9154 420.13 97.8653 420.206 97.8311C420.283 97.7968 420.366 97.779 420.45 97.779H423.053C423.209 97.7787 423.359 97.7164 423.47 97.6058C423.58 97.4952 423.642 97.3453 423.642 97.189V92.856C423.642 92.6997 423.579 92.5499 423.469 92.4394C423.358 92.329 423.208 92.267 423.052 92.267H410.84C410.684 92.267 410.533 92.3291 410.423 92.4398C410.312 92.5504 410.25 92.7005 410.25 92.857V97.19C410.25 97.3463 410.313 97.4961 410.423 97.6065C410.534 97.7169 410.684 97.779 410.84 97.779H413.742C413.888 97.7795 414.028 97.8348 414.135 97.9339C414.242 98.033 414.307 98.1687 414.319 98.314C415.325 109.384 423.491 118.283 433.903 119.841C434.041 119.86 434.168 119.929 434.26 120.034C434.352 120.139 434.403 120.274 434.403 120.414V130.333C434.403 130.416 434.385 130.499 434.351 130.575C434.317 130.651 434.268 130.72 434.206 130.775C434.144 130.831 434.071 130.874 433.992 130.9C433.913 130.926 433.829 130.935 433.746 130.927C417.819 129.191 405.201 115.455 404.112 98.411C404.108 98.3299 404.12 98.2487 404.148 98.1725C404.176 98.0962 404.219 98.0264 404.275 97.9673C404.33 97.9082 404.398 97.8611 404.472 97.8287C404.547 97.7963 404.627 97.7794 404.708 97.779H407.386C407.542 97.779 407.693 97.7168 407.803 97.6062C407.914 97.4955 407.976 97.3455 407.976 97.189V92.856C407.976 92.6997 407.913 92.5499 407.803 92.4394C407.692 92.329 407.542 92.267 407.386 92.267H395.17C395.014 92.267 394.863 92.3291 394.753 92.4398C394.642 92.5504 394.58 92.7005 394.58 92.857V97.19C394.58 97.3463 394.643 97.4961 394.753 97.6065C394.864 97.7169 395.014 97.779 395.17 97.779H398.01C398.16 97.7793 398.303 97.8371 398.411 97.9404C398.52 98.0437 398.584 98.1846 398.591 98.334C399.678 118.506 414.824 134.778 433.867 136.474C434.013 136.486 434.148 136.553 434.247 136.66C434.346 136.767 434.402 136.908 434.402 137.054V154.012C434.402 154.089 434.387 154.166 434.357 154.238C434.328 154.309 434.285 154.374 434.23 154.429C434.175 154.484 434.11 154.527 434.039 154.557C433.967 154.587 433.89 154.602 433.813 154.602H431.05C430.894 154.602 430.745 154.664 430.634 154.774C430.524 154.885 430.462 155.034 430.461 155.19V159.524C430.461 159.68 430.524 159.83 430.634 159.941C430.745 160.051 430.895 160.113 431.051 160.113H443.266C443.422 160.113 443.572 160.05 443.683 159.94C443.793 159.829 443.855 159.679 443.855 159.523V155.19C443.855 155.034 443.793 154.884 443.682 154.773C443.571 154.663 443.421 154.601 443.265 154.601H440.503C440.426 154.601 440.349 154.586 440.277 154.556C440.206 154.527 440.141 154.484 440.086 154.429C440.031 154.374 439.988 154.309 439.958 154.238C439.928 154.166 439.913 154.089 439.913 154.012V137.055C439.914 136.909 439.969 136.768 440.068 136.661C440.167 136.554 440.302 136.487 440.448 136.475C459.491 134.778 474.638 118.506 475.723 98.334C475.73 98.1846 475.795 98.0437 475.903 97.9404C476.011 97.8371 476.154 97.7793 476.304 97.779H479.613C479.769 97.7787 479.919 97.7164 480.03 97.6058C480.14 97.4952 480.202 97.3453 480.202 97.189V92.856C480.202 92.6997 480.139 92.5499 480.029 92.4394C479.918 92.329 479.768 92.267 479.612 92.267H467.398C467.242 92.2672 467.092 92.3295 466.981 92.4401C466.871 92.5507 466.809 92.7007 466.809 92.857" fill="#A05325"/>
<path d="M438.658 382.422H439.836V409.696H438.658V382.422Z" fill="#303443"/>
<g clip-path="url(#clip1_126_89)">
<path d="M574 352.125V350.298H555.752V331.667H553.809V350.298H516.896V331.667H514.953V350.298H478.041V331.667H476.097V350.298H439.186V331.667H437.243V350.298H400.33V331.667H398.387V350.298H361.475V331.667H359.532V350.298H328V352.125H335.29V371.135H328V372.963H359.532V391.974H328V393.802H335.29V412.812H328V414.639H359.532V433.65H328V435.477H335.29V454.489H328V456.315H359.532V475.326H328V477.154H335.29V496.165H328V497.993H359.532V517.004H328V518.831H335.29V533.636H337.234V518.831H374.145V533.636H376.088V518.831H413V533.636H414.943V518.831H451.856V533.636H453.799V518.831H490.711V533.636H492.654V518.831H529.566V533.636H531.509V518.831H568.421V533.636H570.364V518.831H574V517.004H555.752V497.993H574V496.165H570.364V477.154H574V475.326H555.752V456.315H574V454.489H570.364V435.478H574V433.65H555.752V414.639H574V412.812H570.364V393.802H574V391.974H555.752V372.963H574V371.135H570.364V352.125H574ZM492.654 352.125H529.565V371.137H492.654V352.125ZM492.654 393.802H529.565V412.812H492.654V393.802ZM492.654 435.478H529.565V454.489H492.654V435.478ZM492.654 477.154H529.565V496.165H492.654V477.154ZM413 496.165H376.088V477.154H413V496.165ZM413 454.489H376.088V435.477H413V454.489ZM413 412.812H376.088V393.802H413V412.812ZM453.799 352.125H490.711V371.137H453.799V352.125ZM453.799 393.802H490.711V412.812H453.799V393.802ZM453.799 435.478H490.711V454.489H453.799V435.478ZM453.799 477.154H490.711V496.165H453.799V477.154ZM414.943 477.154H451.856V496.165H414.943V477.154ZM439.186 456.315H476.097V475.326H439.186V456.315ZM451.856 454.489H414.943V435.477H451.856V454.489ZM439.186 414.639H476.097V433.65H439.186V414.639ZM451.856 412.812H414.943V393.802H451.856V412.812ZM439.186 372.963H476.097V391.974H439.186V372.963ZM451.856 371.135H414.943V352.124H451.856V371.135ZM413 371.135H376.088V352.124H413V371.135ZM437.243 391.974H400.33V372.963H437.243V391.974ZM437.243 433.65H400.33V414.639H437.243V433.65ZM437.243 475.326H400.33V456.315H437.243V475.326ZM437.243 517.003H400.33V497.992H437.243V517.003ZM439.186 497.993H476.097V517.004H439.186V497.993ZM478.041 497.993H514.952V517.004H478.041V497.993ZM478.041 456.315H514.952V475.326H478.041V456.315ZM478.041 414.639H514.952V433.65H478.041V414.639ZM478.041 372.963H514.952V391.974H478.041V372.963ZM337.234 352.125H374.145V371.137H337.233L337.234 352.125ZM361.475 372.963H398.387V391.974H361.475V372.963ZM337.234 393.802H374.145V412.812H337.233L337.234 393.802ZM361.475 414.639H398.387V433.65H361.475V414.639ZM337.234 435.477H374.145V454.489H337.233L337.234 435.477ZM361.475 456.315H398.387V475.326H361.475V456.315ZM337.234 477.154H374.145V496.165H337.233L337.234 477.154ZM361.475 497.993H398.387V517.004H361.475V497.993ZM553.809 517.004H516.897V497.992H553.809V517.004ZM568.421 496.165H531.51V477.154H568.421V496.165ZM553.809 475.326H516.897V456.315H553.809V475.326ZM568.421 454.489H531.51V435.478H568.421V454.489ZM553.809 433.65H516.897V414.639H553.809V433.65ZM568.421 412.812H531.51V393.802H568.421V412.812ZM553.809 391.974H516.897V372.963H553.809V391.974ZM568.421 371.135H531.51V352.124H568.421V371.135Z" fill="#FF8888"/>
</g>
<g clip-path="url(#clip2_126_89)">
<path d="M129 285.125V283.298H110.752V264.667H108.809V283.298H71.8958V264.667H69.9531V283.298H33.0406V264.667H31.097V283.298H-5.8136V264.667H-7.7572V283.298H-44.6696V264.667H-46.6132V283.298H-83.525V264.667H-85.468V283.298H-117V285.125H-109.71V304.135H-117V305.963H-85.468V324.974H-117V326.802H-109.71V345.812H-117V347.639H-85.468V366.65H-117V368.477H-109.71V387.489H-117V389.315H-85.468V408.326H-117V410.154H-109.71V429.165H-117V430.993H-85.468V450.004H-117V451.831H-109.71V466.636H-107.766V451.831H-70.855V466.636H-68.912V451.831H-32.0003V466.636H-30.0567V451.831H6.8557V466.636H8.7993V451.831H45.7108V466.636H47.6535V451.831H84.566V466.636H86.5087V451.831H123.421V466.636H125.364V451.831H129V450.004H110.752V430.993H129V429.165H125.364V410.154H129V408.326H110.752V389.315H129V387.489H125.364V368.478H129V366.65H110.752V347.639H129V345.812H125.364V326.802H129V324.974H110.752V305.963H129V304.135H125.364V285.125H129ZM47.6535 285.125H84.5651V304.137H47.6535V285.125ZM47.6535 326.802H84.5651V345.812H47.6535V326.802ZM47.6535 368.478H84.5651V387.489H47.6535V368.478ZM47.6535 410.154H84.5651V429.165H47.6535V410.154ZM-32.0003 429.165H-68.912V410.154H-32.0003V429.165ZM-32.0003 387.489H-68.912V368.477H-32.0003V387.489ZM-32.0003 345.812H-68.912V326.802H-32.0003V345.812ZM8.7993 285.125H45.7108V304.137H8.7993V285.125ZM8.7993 326.802H45.7108V345.812H8.7993V326.802ZM8.7993 368.478H45.7108V387.489H8.7993V368.478ZM8.7993 410.154H45.7108V429.165H8.7993V410.154ZM-30.0567 410.154H6.8557V429.165H-30.0567V410.154ZM-5.8136 389.315H31.097V408.326H-5.8136V389.315ZM6.8557 387.489H-30.0567V368.477H6.8557V387.489ZM-5.8136 347.639H31.097V366.65H-5.8136V347.639ZM6.8557 345.812H-30.0567V326.802H6.8557V345.812ZM-5.8136 305.963H31.097V324.974H-5.8136V305.963ZM6.8557 304.135H-30.0567V285.124H6.8557V304.135ZM-32.0003 304.135H-68.912V285.124H-32.0003V304.135ZM-7.7572 324.974H-44.6696V305.963H-7.7572V324.974ZM-7.7572 366.65H-44.6696V347.639H-7.7572V366.65ZM-7.7572 408.326H-44.6696V389.315H-7.7572V408.326ZM-7.7572 450.003H-44.6696V430.992H-7.7572V450.003ZM-5.8136 430.993H31.097V450.004H-5.8136V430.993ZM33.0406 430.993H69.9522V450.004H33.0406V430.993ZM33.0406 389.315H69.9522V408.326H33.0406V389.315ZM33.0406 347.639H69.9522V366.65H33.0406V347.639ZM33.0406 305.963H69.9522V324.974H33.0406V305.963ZM-107.766 285.125H-70.855V304.137H-107.767L-107.766 285.125ZM-83.525 305.963H-46.6132V324.974H-83.525V305.963ZM-107.766 326.802H-70.855V345.812H-107.767L-107.766 326.802ZM-83.525 347.639H-46.6132V366.65H-83.525V347.639ZM-107.766 368.477H-70.855V387.489H-107.767L-107.766 368.477ZM-83.525 389.315H-46.6132V408.326H-83.525V389.315ZM-107.766 410.154H-70.855V429.165H-107.767L-107.766 410.154ZM-83.525 430.993H-46.6132V450.004H-83.525V430.993ZM108.809 450.004H71.8967V430.992H108.809V450.004ZM123.421 429.165H86.5096V410.154H123.421V429.165ZM108.809 408.326H71.8967V389.315H108.809V408.326ZM123.421 387.489H86.5096V368.478H123.421V387.489ZM108.809 366.65H71.8967V347.639H108.809V366.65ZM123.421 345.812H86.5096V326.802H123.421V345.812ZM108.809 324.974H71.8967V305.963H108.809V324.974ZM123.421 304.135H86.5096V285.124H123.421V304.135Z" fill="#FF8888"/>
</g>
<g clip-path="url(#clip3_126_89)">
<path d="M100 254.125V252.298H81.7518V233.667H79.8091V252.298H42.8958V233.667H40.9531V252.298H4.04063V233.667H2.09703V252.298H-34.8136V233.667H-36.7572V252.298H-73.6696V233.667H-75.6132V252.298H-112.525V233.667H-114.468V252.298H-146V254.125H-138.71V273.135H-146V274.963H-114.468V293.974H-146V295.802H-138.71V314.812H-146V316.639H-114.468V335.65H-146V337.477H-138.71V356.489H-146V358.315H-114.468V377.326H-146V379.154H-138.71V398.165H-146V399.993H-114.468V419.003H-146V420.831H-138.71V435.636H-136.766V420.831H-99.855V435.636H-97.912V420.831H-61.0003V435.636H-59.0567V420.831H-22.1443V435.636H-20.2007V420.831H16.7108V435.636H18.6535V420.831H55.566V435.636H57.5087V420.831H94.4211V435.636H96.3638V420.831H100V419.003H81.7518V399.993H100V398.165H96.3638V379.154H100V377.326H81.7518V358.315H100V356.489H96.3638V337.478H100V335.65H81.7518V316.639H100V314.812H96.3638V295.802H100V293.974H81.7518V274.963H100V273.135H96.3638V254.125H100ZM18.6535 254.125H55.5651V273.137H18.6535V254.125ZM18.6535 295.802H55.5651V314.812H18.6535V295.802ZM18.6535 337.478H55.5651V356.489H18.6535V337.478ZM18.6535 379.154H55.5651V398.165H18.6535V379.154ZM-61.0003 398.165H-97.912V379.154H-61.0003V398.165ZM-61.0003 356.489H-97.912V337.476H-61.0003V356.489ZM-61.0003 314.812H-97.912V295.802H-61.0003V314.812ZM-20.2007 254.125H16.7108V273.137H-20.2007V254.125ZM-20.2007 295.802H16.7108V314.812H-20.2007V295.802ZM-20.2007 337.478H16.7108V356.489H-20.2007V337.478ZM-20.2007 379.154H16.7108V398.165H-20.2007V379.154ZM-59.0567 379.154H-22.1443V398.165H-59.0567V379.154ZM-34.8136 358.315H2.09703V377.326H-34.8136V358.315ZM-22.1443 356.489H-59.0567V337.477H-22.1443V356.489ZM-34.8136 316.639H2.09703V335.65H-34.8136V316.639ZM-22.1443 314.812H-59.0567V295.802H-22.1443V314.812ZM-34.8136 274.963H2.09703V293.974H-34.8136V274.963ZM-22.1443 273.135H-59.0567V254.124H-22.1443V273.135ZM-61.0003 273.135H-97.912V254.124H-61.0003V273.135ZM-36.7572 293.974H-73.6696V274.963H-36.7572V293.974ZM-36.7572 335.65H-73.6696V316.639H-36.7572V335.65ZM-36.7572 377.326H-73.6696V358.315H-36.7572V377.326ZM-36.7572 419.002H-73.6696V399.992H-36.7572V419.002ZM-34.8136 399.993H2.09703V419.003H-34.8136V399.993ZM4.04063 399.993H40.9522V419.003H4.04063V399.993ZM4.04063 358.315H40.9522V377.326H4.04063V358.315ZM4.04063 316.639H40.9522V335.65H4.04063V316.639ZM4.04063 274.963H40.9522V293.974H4.04063V274.963ZM-136.766 254.125H-99.855V273.137H-136.767L-136.766 254.125ZM-112.525 274.963H-75.6132V293.974H-112.525V274.963ZM-136.766 295.802H-99.855V314.812H-136.767L-136.766 295.802ZM-112.525 316.639H-75.6132V335.65H-112.525V316.639ZM-136.766 337.477H-99.855V356.489H-136.767L-136.766 337.477ZM-112.525 358.315H-75.6132V377.326H-112.525V358.315ZM-136.766 379.154H-99.855V398.165H-136.767L-136.766 379.154ZM-112.525 399.993H-75.6132V419.003H-112.525V399.993ZM79.8091 419.003H42.8967V399.992H79.8091V419.003ZM94.4211 398.165H57.5096V379.154H94.4211V398.165ZM79.8091 377.326H42.8967V358.315H79.8091V377.326ZM94.4211 356.489H57.5096V337.478H94.4211V356.489ZM79.8091 335.65H42.8967V316.639H79.8091V335.65ZM94.4211 314.812H57.5096V295.802H94.4211V314.812ZM79.8091 293.974H42.8967V274.963H79.8091V293.974ZM94.4211 273.135H57.5096V254.124H94.4211V273.135Z" fill="#FF8888"/>
</g>
<g clip-path="url(#clip4_126_89)">
<path d="M67 285.125V283.298H48.7518V264.667H46.8091V283.298H9.8958V264.667H7.95309V283.298H-28.9594V264.667H-30.903V283.298H-67.8136V264.667H-69.7572V283.298H-106.67V264.667H-108.613V283.298H-145.525V264.667H-147.468V283.298H-179V285.125H-171.71V304.135H-179V305.963H-147.468V324.974H-179V326.802H-171.71V345.812H-179V347.639H-147.468V366.65H-179V368.477H-171.71V387.489H-179V389.315H-147.468V408.326H-179V410.154H-171.71V429.165H-179V430.993H-147.468V450.004H-179V451.831H-171.71V466.636H-169.766V451.831H-132.855V466.636H-130.912V451.831H-94.0003V466.636H-92.0567V451.831H-55.1443V466.636H-53.2007V451.831H-16.2892V466.636H-14.3465V451.831H22.566V466.636H24.5087V451.831H61.4211V466.636H63.3638V451.831H67V450.004H48.7518V430.993H67V429.165H63.3638V410.154H67V408.326H48.7518V389.315H67V387.489H63.3638V368.478H67V366.65H48.7518V347.639H67V345.812H63.3638V326.802H67V324.974H48.7518V305.963H67V304.135H63.3638V285.125H67ZM-14.3465 285.125H22.5651V304.137H-14.3465V285.125ZM-14.3465 326.802H22.5651V345.812H-14.3465V326.802ZM-14.3465 368.478H22.5651V387.489H-14.3465V368.478ZM-14.3465 410.154H22.5651V429.165H-14.3465V410.154ZM-94.0003 429.165H-130.912V410.154H-94.0003V429.165ZM-94.0003 387.489H-130.912V368.477H-94.0003V387.489ZM-94.0003 345.812H-130.912V326.802H-94.0003V345.812ZM-53.2007 285.125H-16.2892V304.137H-53.2007V285.125ZM-53.2007 326.802H-16.2892V345.812H-53.2007V326.802ZM-53.2007 368.478H-16.2892V387.489H-53.2007V368.478ZM-53.2007 410.154H-16.2892V429.165H-53.2007V410.154ZM-92.0567 410.154H-55.1443V429.165H-92.0567V410.154ZM-67.8136 389.315H-30.903V408.326H-67.8136V389.315ZM-55.1443 387.489H-92.0567V368.477H-55.1443V387.489ZM-67.8136 347.639H-30.903V366.65H-67.8136V347.639ZM-55.1443 345.812H-92.0567V326.802H-55.1443V345.812ZM-67.8136 305.963H-30.903V324.974H-67.8136V305.963ZM-55.1443 304.135H-92.0567V285.124H-55.1443V304.135ZM-94.0003 304.135H-130.912V285.124H-94.0003V304.135ZM-69.7572 324.974H-106.67V305.963H-69.7572V324.974ZM-69.7572 366.65H-106.67V347.639H-69.7572V366.65ZM-69.7572 408.326H-106.67V389.315H-69.7572V408.326ZM-69.7572 450.003H-106.67V430.992H-69.7572V450.003ZM-67.8136 430.993H-30.903V450.004H-67.8136V430.993ZM-28.9594 430.993H7.95221V450.004H-28.9594V430.993ZM-28.9594 389.315H7.95221V408.326H-28.9594V389.315ZM-28.9594 347.639H7.95221V366.65H-28.9594V347.639ZM-28.9594 305.963H7.95221V324.974H-28.9594V305.963ZM-169.766 285.125H-132.855V304.137H-169.767L-169.766 285.125ZM-145.525 305.963H-108.613V324.974H-145.525V305.963ZM-169.766 326.802H-132.855V345.812H-169.767L-169.766 326.802ZM-145.525 347.639H-108.613V366.65H-145.525V347.639ZM-169.766 368.477H-132.855V387.489H-169.767L-169.766 368.477ZM-145.525 389.315H-108.613V408.326H-145.525V389.315ZM-169.766 410.154H-132.855V429.165H-169.767L-169.766 410.154ZM-145.525 430.993H-108.613V450.004H-145.525V430.993ZM46.8091 450.004H9.8967V430.992H46.8091V450.004ZM61.4211 429.165H24.5096V410.154H61.4211V429.165ZM46.8091 408.326H9.8967V389.315H46.8091V408.326ZM61.4211 387.489H24.5096V368.478H61.4211V387.489ZM46.8091 366.65H9.8967V347.639H46.8091V366.65ZM61.4211 345.812H24.5096V326.802H61.4211V345.812ZM46.8091 324.974H9.8967V305.963H46.8091V324.974ZM61.4211 304.135H24.5096V285.124H61.4211V304.135Z" fill="#FF8888"/>
</g>
</g>
<defs>
<clipPath id="clip0_126_89">
<rect width="700" height="550" fill="white"/>
</clipPath>
<clipPath id="clip1_126_89">
<rect width="66" height="31" fill="white" transform="translate(480 342)"/>
</clipPath>
<clipPath id="clip2_126_89">
<rect width="66" height="31" fill="white" transform="translate(35 275)"/>
</clipPath>
<clipPath id="clip3_126_89">
<rect width="66" height="31" fill="white" transform="translate(6 244)"/>
</clipPath>
<clipPath id="clip4_126_89">
<rect width="66" height="31" fill="white" transform="translate(-27 275)"/>
</clipPath>
</defs>
</svg>
