<svg xmlns="http://www.w3.org/2000/svg" enable-background="new 0 0 1000 1000" viewBox="0 0 1000 1000" id="living-room-interior"><path fill="#cdebe8" d="M0 0h1000v1000H0z"></path><path fill="none" stroke="#8dc6bf" stroke-linecap="round" stroke-linejoin="round" stroke-miterlimit="10" stroke-width="6" d="M253.855 390.354v30.931h-61.862M315.716 421.285h-61.861v-30.931M222.924 421.285h61.862v30.931h-61.862zM271.432 483.147h-17.577v-30.931h61.861M191.993 452.216h61.862v30.931h-50.163M170.905 421.285h52.019v30.931h-30.931M329.427 452.216h-44.641v-30.931h21.443M756.478 382.069V413h-61.862M818.34 413h-61.862v-30.931M725.547 413h61.862v30.931h-61.862zM666.245 288.201h52.019v30.931h-30.931M832.05 443.931h-44.641V413h21.443"></path><path fill="#6da580" d="M233.466 524h54v22h-54z"></path><path fill="none" stroke="#313031" stroke-linecap="round" stroke-linejoin="round" stroke-miterlimit="10" stroke-width="10" d="M233.466 524h54v22h-54z"></path><circle cx="382.609" cy="544.5" r="40" fill="#0bc6d5"></circle><path fill="#0bc6d5" d="M367.942 544.5c0-17.663 11.453-32.641 27.333-37.94a39.933 39.933 0 0 0-12.667-2.06c-22.091 0-40 17.909-40 40s17.909 40 40 40c4.429 0 8.685-.731 12.667-2.06-15.88-5.299-27.333-20.277-27.333-37.94z" opacity=".74"></path><circle cx="382.609" cy="544.5" r="40" fill="none" stroke="#313031" stroke-linecap="round" stroke-linejoin="round" stroke-miterlimit="10" stroke-width="10"></circle><path fill="none" stroke="#313031" stroke-linecap="round" stroke-linejoin="round" stroke-miterlimit="10" stroke-width="14" d="M382.609 499.167V413"></path><path fill="none" stroke="#313031" stroke-linecap="round" stroke-linejoin="round" stroke-miterlimit="10" stroke-width="10" d="M446.166 436.75H319.052l18.159-90.796h90.796z"></path><path fill="#f0f4f7" d="M446.166 436.75H319.052l18.159-90.796h90.796z"></path><path fill="#dbdbdb" d="m337.211 345.954-18.159 90.796h46.197l10.061-90.796z"></path><path fill="none" stroke="#313031" stroke-linecap="round" stroke-linejoin="round" stroke-miterlimit="10" stroke-width="10" d="M446.166 436.75H319.052l18.159-90.796h90.796z"></path><path fill="none" stroke="#313031" stroke-linecap="round" stroke-linejoin="round" stroke-miterlimit="10" stroke-width="4" d="M412.833 436.75v24.917"></path><circle cx="412.833" cy="469.542" r="7.875" fill="none" stroke="#313031" stroke-linecap="round" stroke-linejoin="round" stroke-miterlimit="10" stroke-width="4"></circle><circle cx="412.833" cy="469.542" r="7.875" fill="#313031"></circle><path fill="none" stroke="#313031" stroke-linecap="round" stroke-linejoin="round" stroke-miterlimit="10" stroke-width="10" d="M218.166 706h32v20h-32z"></path><path fill="#313031" d="M218.166 706h32v20h-32z"></path><path fill="none" stroke="#313031" stroke-linecap="round" stroke-linejoin="round" stroke-miterlimit="10" stroke-width="10" d="M381.166 706h32v20h-32z"></path><path fill="#313031" d="M381.166 706h32v20h-32z"></path><path fill="#ffc857" d="M547.16 618V487c0-28.719 23.281-52 52-52h94.346c28.719 0 52 23.281 52 52v131H547.16z"></path><path fill="#ffc857" d="M693.506 436H599.16c-28.719 0-52 23.281-52 52v12.167c0-28.719 23.281-52 52-52h94.346c28.719 0 52 23.281 52 52V488c0-28.719-23.281-52-52-52z" opacity=".6"></path><path fill="none" stroke="#313031" stroke-linecap="round" stroke-linejoin="round" stroke-miterlimit="10" stroke-width="10" d="M547.16 618V487c0-28.719 23.281-52 52-52h94.346c28.719 0 52 23.281 52 52v131H547.16z"></path><path fill="#7c4f49" d="M194.167 626h244v80h-244z"></path><path fill="none" stroke="#7c4f49" stroke-linecap="round" stroke-linejoin="round" stroke-miterlimit="10" stroke-width="10" d="M283.166 666h59.443v9.167h-59.443z" opacity=".24"></path><path fill="#7c4f49" d="M194.167 626.583h244v9.667h-244z" opacity=".54"></path><path fill="#7c4f49" d="M194.167 696.167h244v9.667h-244z" opacity=".24"></path><path fill="none" stroke="#313031" stroke-linecap="round" stroke-linejoin="round" stroke-miterlimit="10" stroke-width="10" d="M194.167 626h244v80h-244z"></path><path fill="#7c4f49" d="M194.167 546h244v80h-244z"></path><path fill="none" stroke="#7c4f49" stroke-linecap="round" stroke-linejoin="round" stroke-miterlimit="10" stroke-width="10" d="M283.166 586h59.443v9.167h-59.443z" opacity=".24"></path><path fill="#7c4f49" d="M194.167 616h244v9.667h-244z" opacity=".24"></path><path fill="#7c4f49" d="M194.167 546h244v9.667h-244z" opacity=".54"></path><path fill="none" stroke="#313031" stroke-linecap="round" stroke-linejoin="round" stroke-miterlimit="10" stroke-width="10" d="M194.167 546h244v80h-244z"></path><path fill="#ffc857" d="M790.333 706.583h-54v-144c0-8.837 7.163-16 16-16h22c8.837 0 16 7.163 16 16v144z"></path><path fill="#ffc857" d="M774.333 546h-22c-8.837 0-16 7.163-16 16v10c0-8.837 7.163-16 16-16h22c8.837 0 16 7.163 16 16v-10c0-8.837-7.163-16-16-16z" opacity=".6"></path><path fill="none" stroke="#313031" stroke-linecap="round" stroke-linejoin="round" stroke-miterlimit="10" stroke-width="10" d="M790.333 706h-54V562c0-8.837 7.163-16 16-16h22c8.837 0 16 7.163 16 16v144z"></path><path fill="#fff" d="M581.63 237.597h120v164h-120z" transform="rotate(90 641.63 319.597)"></path><path fill="none" stroke="#313031" stroke-linecap="round" stroke-linejoin="round" stroke-miterlimit="10" stroke-width="10" d="M581.63 237.597h120v164h-120z" transform="rotate(90 641.63 319.597)"></path><path fill="#c6c6c6" d="M575.63 275.597h132v88h-132z"></path><path fill="none" stroke="#313031" stroke-linecap="round" stroke-linejoin="round" stroke-miterlimit="10" stroke-width="6" d="M575.63 275.597h132v88h-132z"></path><path fill="#313031" d="m599.362 345.954 20.951-36.287 20.951 36.287z"></path><path fill="none" stroke="#313031" stroke-linecap="round" stroke-linejoin="round" stroke-miterlimit="10" stroke-width="4" d="m599.362 345.954 20.951-36.287 20.951 36.287z"></path><path fill="#0bc6d5" d="m620.313 345.954 24.415-42.287 24.415 42.287z"></path><path fill="none" stroke="#313031" stroke-linecap="round" stroke-linejoin="round" stroke-miterlimit="10" stroke-width="4" d="m620.313 345.954 24.415-42.287 24.415 42.287z"></path><circle cx="678.476" cy="300.333" r="9.333" fill="#ffc857"></circle><circle cx="678.476" cy="300.333" r="9.333" fill="none" stroke="#313031" stroke-linecap="round" stroke-linejoin="round" stroke-miterlimit="10" stroke-width="4"></circle><path fill="none" stroke="#313031" stroke-linecap="round" stroke-linejoin="round" stroke-miterlimit="10" stroke-width="6" d="M588.487 259.597 640.507 224l52 35.577"></path><path fill="none" stroke="#313031" stroke-linecap="round" stroke-linejoin="round" stroke-miterlimit="10" stroke-width="10" d="M342.609 586h-59.443M283.166 666h59.443"></path><path fill="#313031" d="M736.333 706h32v20h-32z"></path><path fill="none" stroke="#313031" stroke-linecap="round" stroke-linejoin="round" stroke-miterlimit="10" stroke-width="10" d="M736.333 706h32v20h-32z"></path><path fill="#313031" d="M524.083 706h32v20h-32z"></path><path fill="none" stroke="#313031" stroke-linecap="round" stroke-linejoin="round" stroke-miterlimit="10" stroke-width="10" d="M524.083 706h32v20h-32z"></path><path fill="#ffc857" d="M556.083 706h-54V562c0-8.837 7.163-16 16-16h22c8.837 0 16 7.163 16 16v144z"></path><path fill="#ffc857" d="M540.083 546h-22c-8.837 0-16 7.163-16 16v10c0-8.837 7.163-16 16-16h22c8.837 0 16 7.163 16 16v-10c0-8.837-7.164-16-16-16z" opacity=".6"></path><path fill="none" stroke="#313031" stroke-linecap="round" stroke-linejoin="round" stroke-miterlimit="10" stroke-width="10" d="M556.083 706h-54V562c0-8.837 7.163-16 16-16h22c8.837 0 16 7.163 16 16v144z"></path><path fill="#ffc857" d="M556.333 663v-48.417c0-10.263 8.32-18.583 18.583-18.583H717.75c10.263 0 18.583 8.32 18.583 18.583V663h-180z"></path><path fill="#ffc857" d="M717.75 596H574.917c-10.263 0-18.583 8.32-18.583 18.583v12c0-10.263 8.32-18.583 18.583-18.583H717.75c10.263 0 18.583 8.32 18.583 18.583v-12c0-10.263-8.32-18.583-18.583-18.583z" opacity=".6"></path><path fill="none" stroke="#313031" stroke-linecap="round" stroke-linejoin="round" stroke-miterlimit="10" stroke-width="10" d="M556.333 663v-48.417c0-10.263 8.32-18.583 18.583-18.583H717.75c10.263 0 18.583 8.32 18.583 18.583V663h-180z"></path><path fill="#ffc857" d="M627.333 592h38v180h-38z" transform="rotate(90 646.333 682)"></path><path fill="#ffc857" d="M627.333 592h38v180h-38z" transform="rotate(90 646.333 682)"></path><path fill="#d89e36" d="M640.333 579h12v180h-12z" transform="rotate(90 646.333 669)"></path><path fill="none" stroke="#313031" stroke-linecap="round" stroke-linejoin="round" stroke-miterlimit="10" stroke-width="10" d="M627.333 592h38v180h-38z" transform="rotate(90 646.333 682)"></path><circle cx="646.75" cy="515.5" r="11" fill="#fff" opacity=".69"></circle><circle cx="646.75" cy="515.5" r="11" fill="none" stroke="#313031" stroke-linecap="round" stroke-linejoin="round" stroke-miterlimit="10" stroke-width="6"></circle><path fill="none" stroke="#313031" stroke-linecap="round" stroke-linejoin="round" stroke-miterlimit="10" stroke-width="10" d="M166.5 726h647.583M423.306 774.577H502.5M388.515 774.577h17.303M832.05 726h13.7"></path><ellipse cx="414.875" cy="465.417" fill="#dbdbdb" rx="2.042" ry="1.75"></ellipse></svg>