<svg xmlns="http://www.w3.org/2000/svg" enable-background="new 0 0 1000 1000" viewBox="0 0 1000 1000" id="tv-room"><path fill="#a7e8c3" d="M0 0h1000v1000H0z"></path><path fill="none" stroke="#78c199" stroke-linecap="round" stroke-linejoin="round" stroke-miterlimit="10" stroke-width="6" d="M217.688 284.056v30.931h-61.862M279.55 314.987h-61.862v-30.931M186.757 314.987h61.862v30.931h-61.862zM235.265 376.849h-17.577v-30.931h61.862M155.826 345.918h61.862v30.931h-50.162M134.739 314.987h52.018v30.931h-30.931M293.261 345.918h-44.642v-30.931h21.444M792.269 394.709v30.931h-61.862M854.131 425.64h-61.862v-30.931M761.338 425.64H823.2v30.931h-61.862zM809.846 487.502h-17.577v-30.931h61.862M730.407 456.571h61.862v30.931h-50.162"></path><path fill="none" stroke="#8dc6bf" stroke-linecap="round" stroke-linejoin="round" stroke-miterlimit="10" stroke-width="6" d="M709.32 425.64h52.018v30.931h-30.931"></path><path fill="none" stroke="#78c199" stroke-linecap="round" stroke-linejoin="round" stroke-miterlimit="10" stroke-width="6" d="M867.842 456.571H823.2V425.64h21.444"></path><path fill="none" stroke="#1d2f3d" stroke-linecap="round" stroke-linejoin="round" stroke-miterlimit="10" stroke-width="10" d="M837 726h25M429.667 726h384.416M395.166 726h19.167M109.583 726H378M736 701.962h36v24h-36z"></path><path fill="#1d2f3d" d="M736 701.962h36v24h-36z"></path><path fill="none" stroke="#1d2f3d" stroke-linecap="round" stroke-linejoin="round" stroke-miterlimit="10" stroke-width="10" d="M228 701.962h36v24h-36z"></path><path fill="#1d2f3d" d="M228 701.962h36v24h-36z"></path><path fill="#e7e0d0" d="M185.917 673.962h628.166v28H185.917z"></path><path fill="none" stroke="#1d2f3d" stroke-linecap="round" stroke-linejoin="round" stroke-miterlimit="10" stroke-width="10" d="M185.917 673.962h628.166v28H185.917z"></path><path fill="#e7e0d0" d="M185.917 527.962h628.166v18H185.917z"></path><path fill="none" stroke="#1d2f3d" stroke-linecap="round" stroke-linejoin="round" stroke-miterlimit="10" stroke-width="10" d="M185.917 527.962h628.166v18H185.917z"></path><path fill="#e7e0d0" d="M500 545.962h300v128H500z"></path><path fill="none" stroke="#1d2f3d" stroke-linecap="round" stroke-linejoin="round" stroke-miterlimit="10" stroke-width="10" d="M500 545.962h300v128H500z"></path><path fill="#1d2f3d" d="M800 545.962H500v128h28.776V571.851H800z" opacity=".23"></path><path fill="#fe615a" d="M200 545.962h300v64H200z"></path><path fill="#ef4d4d" d="M200 545.962h300v64H200z"></path><path fill="#1d2f3d" d="M200 600.333h300v9.629H200zM200 545.962h300v21.705H200z" opacity=".23"></path><path fill="none" stroke="#1d2f3d" stroke-linecap="round" stroke-linejoin="round" stroke-miterlimit="10" stroke-width="10" d="M200 545.962h300v64H200z"></path><path fill="#ef4d4d" d="M200 609.962h300v64H200z"></path><path fill="#1d2f3d" d="M200 664.884h300v9.629H200z" opacity=".23"></path><path fill="#1d2f3d" d="M200 610.079h300v9.629H200z"></path><path fill="none" stroke="#1d2f3d" stroke-linecap="round" stroke-linejoin="round" stroke-miterlimit="10" stroke-width="10" d="M200 609.962h300v64H200z"></path><path fill="#e7e0d0" d="M200 545.962h14v128h-14z"></path><path fill="none" stroke="#1d2f3d" stroke-linecap="round" stroke-linejoin="round" stroke-miterlimit="10" stroke-width="10" d="M200 545.962h14v128h-14z"></path><path fill="#e7e0d0" d="M493 545.962h14v128h-14z"></path><path fill="none" stroke="#1d2f3d" stroke-linecap="round" stroke-linejoin="round" stroke-miterlimit="10" stroke-width="10" d="M493 545.962h14v128h-14zM788.581 545.962h14v128h-14z"></path><path fill="#938f8f" d="M516.875 488.962H679v39H516.875z"></path><path fill="#938f8f" d="M516.875 519.667H679v8.295H516.875z" opacity=".57"></path><path fill="#aaa" d="M516.875 488.962H679v8.371H516.875z" opacity=".55"></path><path fill="none" stroke="#1d2f3d" stroke-linecap="round" stroke-linejoin="round" stroke-miterlimit="10" stroke-width="10" d="M516.875 488.962H679v39H516.875z"></path><path fill="none" stroke="#1d2f3d" stroke-linecap="round" stroke-linejoin="round" stroke-miterlimit="10" stroke-width="4" d="M583.938 504.462h64.25M583.938 512.462h32.125"></path><circle cx="548.133" cy="508.462" r="7" fill="#e7e0d0"></circle><circle cx="548.133" cy="508.462" r="7" fill="none" stroke="#1d2f3d" stroke-linecap="round" stroke-linejoin="round" stroke-miterlimit="10" stroke-width="4"></circle><path fill="#546672" d="M755.938 465.028H444.063c-8.837 0-16-7.163-16-16V276.056c0-8.837 7.163-16 16-16h311.875c8.837 0 16 7.163 16 16v172.972c0 8.836-7.164 16-16 16z"></path><path fill="#546672" d="M755.938 453.103H444.063c-8.837 0-16-7.163-16-16v11.925c0 8.837 7.163 16 16 16h311.875c8.837 0 16-7.163 16-16v-11.925c0 8.836-7.164 16-16 16z" opacity=".68"></path><path fill="#546672" d="M755.938 259.056H444.063c-8.837 0-16 7.163-16 16v9c0-8.837 7.163-16 16-16h311.875c8.837 0 16 7.163 16 16v-9c0-8.837-7.164-16-16-16z" opacity=".81"></path><path fill="#1d2f3d" d="M444.633 426.154V284.892c0-5.417 4.391-9.808 9.808-9.808h291.118c5.417 0 9.808 4.391 9.808 9.808v141.261c0 5.417-4.391 9.808-9.808 9.808H454.441c-5.417.001-9.808-4.39-9.808-9.807z"></path><path fill="none" stroke="#1d2f3d" stroke-linecap="round" stroke-linejoin="round" stroke-miterlimit="10" stroke-width="10" d="M755.938 465.028H444.063c-8.837 0-16-7.163-16-16V276.056c0-8.837 7.163-16 16-16h311.875c8.837 0 16 7.163 16 16v172.972c0 8.836-7.164 16-16 16z"></path><ellipse cx="600" cy="447.667" fill="#d1e3ed" opacity=".13" rx="7.5" ry="7.644"></ellipse><ellipse cx="600" cy="447.667" fill="#1d2f3d" rx="6.437" ry="6.561"></ellipse><circle cx="569.276" cy="596.855" r="13.224" fill="#61ba4f"></circle><circle cx="569.276" cy="596.855" r="13.224" fill="none" stroke="#1d2f3d" stroke-linecap="round" stroke-linejoin="round" stroke-miterlimit="10" stroke-width="10"></circle><path fill="#61ba4f" d="M558.086 576.071c-3.38-5.626-9.921-5.626-13.301 0-4.426 7.367-7.189 17.815-7.189 29.405 0 16.645 5.7 30.935 13.84 37.127 8.14-6.191 13.84-20.481 13.84-37.127 0-11.59-2.763-22.038-7.19-29.405z"></path><path fill="none" stroke="#1d2f3d" stroke-linecap="round" stroke-linejoin="round" stroke-miterlimit="10" stroke-width="10" d="M558.086 576.071c-3.38-5.626-9.921-5.626-13.301 0-4.426 7.367-7.189 17.815-7.189 29.405 0 16.645 5.7 30.935 13.84 37.127 8.14-6.191 13.84-20.481 13.84-37.127 0-11.59-2.763-22.038-7.19-29.405z"></path><path fill="#ffea87" d="M568.816 673.962h-34.76l-5.28-43.229h45.32z"></path><path fill="#3d3d3d" d="m528.776 630.733 5.28 43.229h17.84L550 630.733z" opacity=".26"></path><path fill="none" stroke="#1d2f3d" stroke-linecap="round" stroke-linejoin="round" stroke-miterlimit="10" stroke-width="10" d="M568.816 673.962h-34.76l-5.28-43.229h45.32z"></path><path fill="#ff6259" d="M768.581 571h20v102.962h-20z"></path><path fill="none" stroke="#1d2f3d" stroke-linecap="round" stroke-linejoin="round" stroke-miterlimit="10" stroke-width="10" d="M768.581 571h20v102.962h-20z"></path><path fill="#f7b363" d="M745.581 577.962h23v96h-23z"></path><path fill="none" stroke="#1d2f3d" stroke-linecap="round" stroke-linejoin="round" stroke-miterlimit="10" stroke-width="10" d="M745.581 577.962h23v96h-23z"></path><path fill="#0ac4dd" d="M708.937 580.481h17.333v90.962h-17.333z" transform="rotate(25.485 717.625 626.038)"></path><path fill="none" stroke="#1d2f3d" stroke-linecap="round" stroke-linejoin="round" stroke-miterlimit="10" stroke-width="10" d="M708.937 580.481h17.333v90.962h-17.333z" transform="rotate(25.485 717.625 626.038)"></path><path fill="#f7b363" d="M587.14 655.806h89.742v18.156H587.14z"></path><path fill="none" stroke="#1d2f3d" stroke-linecap="round" stroke-linejoin="round" stroke-miterlimit="10" stroke-width="10" d="M587.14 655.806h89.742v18.156H587.14z"></path><path fill="#8bb572" d="M597.938 638h85.246v18.156h-85.246z"></path><path fill="none" stroke="#1d2f3d" stroke-linecap="round" stroke-linejoin="round" stroke-miterlimit="10" stroke-width="10" d="M597.938 637h85.246v18.156h-85.246z"></path><path fill="#976b50" d="M256.221 381.857h80.996v144.462h-80.996z"></path><path fill="#976b50" d="M256.221 381.857h80.996v144.462h-80.996z"></path><path fill="#976b50" d="M256.221 381.857h80.996v9.809h-80.996z" opacity=".72"></path><path fill="#976b50" d="M256.221 514.843h80.996v11.476h-80.996z" opacity=".41"></path><path fill="none" stroke="#1d2f3d" stroke-linecap="round" stroke-linejoin="round" stroke-miterlimit="10" stroke-width="10" d="M256.221 381.857h80.996v144.462h-80.996z"></path><circle cx="295.74" cy="429.372" r="23.902" fill="#e7e0d0"></circle><path fill="#e7e0d0" d="M271.839 429.372c0-13.2 10.701-23.902 23.902-23.902s23.902 10.701 23.902 23.902h-47.804z"></path><circle cx="295.74" cy="429.372" r="23.902" fill="none" stroke="#1d2f3d" stroke-linecap="round" stroke-linejoin="round" stroke-miterlimit="10" stroke-width="8"></circle><circle cx="295.74" cy="429.372" r="9.01" fill="#1d2f3d"></circle><circle cx="295.74" cy="487.907" r="14.799" fill="#e7e0d0"></circle><path fill="#e7e0d0" d="M280.941 487.907c0-8.173 6.626-14.799 14.799-14.799s14.799 6.626 14.799 14.799h-29.598z"></path><circle cx="295.74" cy="487.907" r="4.885" fill="#1d2f3d"></circle><circle cx="295.74" cy="487.907" r="14.799" fill="none" stroke="#1d2f3d" stroke-linecap="round" stroke-linejoin="round" stroke-miterlimit="10" stroke-width="8"></circle><path fill="#e7e0d0" d="M338.676 277.333h-83.913c-9.337 0-16.906-7.569-16.906-16.906v-83.913c0-9.337 7.569-16.906 16.906-16.906h83.913c9.337 0 16.906 7.569 16.906 16.906v83.913c0 9.337-7.569 16.906-16.906 16.906z"></path><path fill="#e7e0d0" d="M338.676 159.607h-83.913c-9.337 0-16.906 7.569-16.906 16.906v15c0-9.337 7.569-16.906 16.906-16.906h83.913c9.337 0 16.906 7.569 16.906 16.906v-15c0-9.336-7.569-16.906-16.906-16.906z" opacity=".82"></path><path fill="none" stroke="#1d2f3d" stroke-linecap="round" stroke-linejoin="round" stroke-miterlimit="10" stroke-width="10" d="M338.676 277.333h-83.913c-9.337 0-16.906-7.569-16.906-16.906v-83.913c0-9.337 7.569-16.906 16.906-16.906h83.913c9.337 0 16.906 7.569 16.906 16.906v83.913c0 9.337-7.569 16.906-16.906 16.906z"></path><path fill="none" stroke="#1d2f3d" stroke-linecap="round" stroke-linejoin="round" stroke-miterlimit="10" stroke-width="6" d="M297.469 218.47H271.62"></path><path fill="none" stroke="#1d2f3d" stroke-linecap="round" stroke-linejoin="round" stroke-miterlimit="10" stroke-width="4" d="m319.423 184.333-21.954 34.137"></path><path fill="#e7e0d0" d="M788.581 545.962h14v128h-14z"></path><path fill="none" stroke="#1d2f3d" stroke-linecap="round" stroke-linejoin="round" stroke-miterlimit="10" stroke-width="10" d="M788.581 545.962h14v128h-14z"></path><circle cx="350" cy="577.75" r="14.25" fill="#e7e0d0"></circle><circle cx="350" cy="577.75" r="14.25" fill="none" stroke="#1d2f3d" stroke-linecap="round" stroke-linejoin="round" stroke-miterlimit="10" stroke-width="10"></circle><circle cx="350" cy="641.962" r="14.25" fill="#e7e0d0"></circle><circle cx="350" cy="641.962" r="14.25" fill="none" stroke="#1d2f3d" stroke-linecap="round" stroke-linejoin="round" stroke-miterlimit="10" stroke-width="10"></circle><path fill="none" stroke="#1d2f3d" stroke-linecap="round" stroke-linejoin="round" stroke-miterlimit="10" stroke-width="10" d="M768.581 599.333h20M745.581 609.962h23M718.926 603.047l15.647 7.459"></path><path fill="#d1e3ed" d="M654.747 275.084h-57.709L444.721 427.401c.614 4.826 4.727 8.561 9.72 8.561h39.428l160.878-160.878zM511.936 435.962h28.855l160.878-160.878h-28.855zM652.395 435.962 755.367 332.99V311.3L630.705 435.962z" opacity=".07"></path><path fill="none" stroke="#1d2f3d" stroke-linecap="round" stroke-linejoin="round" stroke-miterlimit="10" stroke-width="10" d="M616.063 637v18.156"></path><path fill="none" stroke="#1d2f3d" stroke-linecap="round" stroke-linejoin="round" stroke-miterlimit="10" stroke-width="6" d="M296.719 166.304v5.934M296.719 264.702v5.935M348.886 218.47h-5.935M250.487 218.47h-5.934"></path><circle cx="297.469" cy="218.47" r="7.333" fill="#1d2f3d"></circle><path fill="none" stroke="#1d2f3d" stroke-linecap="round" stroke-linejoin="round" stroke-miterlimit="10" stroke-width="10" d="M650 656.156v17.806M564.938 774.577h79.194M530.147 774.577h17.303M364.25 516.581h81.417v7.381H364.25z"></path></svg>