<svg xmlns="http://www.w3.org/2000/svg" enable-background="new 0 0 1000 1000" viewBox="0 0 1000 1000" id="kitchen-point"><rect width="1000" height="1000" fill="#c3ede1"></rect><g opacity=".23"><polyline fill="none" stroke="#474747" stroke-linecap="round" stroke-linejoin="round" stroke-miterlimit="10" stroke-width="6" points="541.355 267.931 541.355 298.862 479.493 298.862"></polyline><polyline fill="none" stroke="#474747" stroke-linecap="round" stroke-linejoin="round" stroke-miterlimit="10" stroke-width="6" points="603.217 298.862 541.355 298.862 541.355 267.931"></polyline><rect width="61.862" height="30.931" x="510.424" y="298.862" fill="none" stroke="#474747" stroke-linecap="round" stroke-linejoin="round" stroke-miterlimit="10" stroke-width="6"></rect><polyline fill="none" stroke="#474747" stroke-linecap="round" stroke-linejoin="round" stroke-miterlimit="10" stroke-width="6" points="558.932 360.724 541.355 360.724 541.355 329.793 603.217 329.793"></polyline><polyline fill="none" stroke="#474747" stroke-linecap="round" stroke-linejoin="round" stroke-miterlimit="10" stroke-width="6" points="479.493 329.793 541.355 329.793 541.355 360.724 491.192 360.724"></polyline><polyline fill="none" stroke="#474747" stroke-linecap="round" stroke-linejoin="round" stroke-miterlimit="10" stroke-width="6" points="458.406 298.862 510.424 298.862 510.424 329.793 479.493 329.793"></polyline><polyline fill="none" stroke="#474747" stroke-linecap="round" stroke-linejoin="round" stroke-miterlimit="10" stroke-width="6" points="616.927 329.793 572.286 329.793 572.286 298.862 593.729 298.862"></polyline></g><g opacity=".23"><polyline fill="none" stroke="#474747" stroke-linecap="round" stroke-linejoin="round" stroke-miterlimit="10" stroke-width="6" points="117.568 521.191 117.568 552.122 55.706 552.122"></polyline><polyline fill="none" stroke="#474747" stroke-linecap="round" stroke-linejoin="round" stroke-miterlimit="10" stroke-width="6" points="179.43 552.122 117.568 552.122 117.568 521.191"></polyline><rect width="61.862" height="30.931" x="86.637" y="552.122" fill="none" stroke="#474747" stroke-linecap="round" stroke-linejoin="round" stroke-miterlimit="10" stroke-width="6"></rect><polyline fill="none" stroke="#474747" stroke-linecap="round" stroke-linejoin="round" stroke-miterlimit="10" stroke-width="6" points="135.145 613.984 117.568 613.984 117.568 583.053 179.43 583.053"></polyline><polyline fill="none" stroke="#474747" stroke-linecap="round" stroke-linejoin="round" stroke-miterlimit="10" stroke-width="6" points="55.706 583.053 117.568 583.053 117.568 613.984 67.406 613.984"></polyline><polyline fill="none" stroke="#474747" stroke-linecap="round" stroke-linejoin="round" stroke-miterlimit="10" stroke-width="6" points="34.619 552.122 86.637 552.122 86.637 583.053 55.706 583.053"></polyline><polyline fill="none" stroke="#474747" stroke-linecap="round" stroke-linejoin="round" stroke-miterlimit="10" stroke-width="6" points="193.141 583.053 148.499 583.053 148.499 552.122 169.943 552.122"></polyline></g><g opacity=".23"><polyline fill="none" stroke="#474747" stroke-linecap="round" stroke-linejoin="round" stroke-miterlimit="10" stroke-width="6" points="872.017 411.604 872.017 442.535 933.879 442.535"></polyline><polyline fill="none" stroke="#474747" stroke-linecap="round" stroke-linejoin="round" stroke-miterlimit="10" stroke-width="6" points="810.155 442.535 872.017 442.535 872.017 411.604"></polyline><rect width="61.862" height="30.931" x="841.086" y="442.535" fill="none" stroke="#474747" stroke-linecap="round" stroke-linejoin="round" stroke-miterlimit="10" stroke-width="6" transform="rotate(-180 872.017 458)"></rect><polyline fill="none" stroke="#474747" stroke-linecap="round" stroke-linejoin="round" stroke-miterlimit="10" stroke-width="6" points="854.439 504.396 872.017 504.396 872.017 473.465 810.155 473.465"></polyline><polyline fill="none" stroke="#474747" stroke-linecap="round" stroke-linejoin="round" stroke-miterlimit="10" stroke-width="6" points="933.879 473.465 872.017 473.465 872.017 504.396 895.205 504.396"></polyline><polyline fill="none" stroke="#474747" stroke-linecap="round" stroke-linejoin="round" stroke-miterlimit="10" stroke-width="6" points="954.966 442.535 902.948 442.535 902.948 473.465 933.879 473.465"></polyline><polyline fill="none" stroke="#474747" stroke-linecap="round" stroke-linejoin="round" stroke-miterlimit="10" stroke-width="6" points="796.444 473.465 841.086 473.465 841.086 442.535 819.642 442.535"></polyline></g><line x1="75.78" x2="902.948" y1="726" y2="726" fill="none" stroke="#333" stroke-linecap="round" stroke-linejoin="round" stroke-miterlimit="10" stroke-width="10"></line><g><path fill="#cc6675" d="M741.491,375.576H637.577c-6.627,0-12-5.373-12-12v-130c0-6.627,5.373-12,12-12
		h103.914V375.576z"></path><path fill="#fee2ca" d="M741.491,375.576h103.914c6.627,0,12-5.373,12-12v-130c0-6.627-5.373-12-12-12
		H741.491V375.576z"></path><path fill="#cc6675" d="M741.491,375.576h103.914c6.627,0,12-5.373,12-12v-130c0-6.627-5.373-12-12-12
		H741.491V375.576z"></path><path fill="none" stroke="#333" stroke-linecap="round" stroke-linejoin="round" stroke-miterlimit="10" stroke-width="10" d="
		M845.405,375.576H637.577c-6.627,0-12-5.373-12-12v-130c0-6.627,5.373-12,12-12h207.828c6.627,0,12,5.373,12,12v130
		C857.405,370.203,852.032,375.576,845.405,375.576z"></path><path fill="none" stroke="#333" stroke-linecap="round" stroke-linejoin="round" stroke-miterlimit="10" stroke-width="10" d="
		M741.491,375.576H637.577c-6.627,0-12-5.373-12-12v-130c0-6.627,5.373-12,12-12h103.914V375.576z"></path><path fill="none" stroke="#333" stroke-linecap="round" stroke-linejoin="round" stroke-miterlimit="10" stroke-width="10" d="
		M741.491,375.576H637.577c-6.627,0-12-5.373-12-12v-130c0-6.627,5.373-12,12-12h103.914V375.576z"></path><rect width="120.882" height="82.796" x="623.093" y="257.178" fill="#f26b79" transform="rotate(90 683.534 298.576)"></rect><rect width="8.556" height="82.796" x="679.256" y="313.341" fill="#99675e" opacity=".5" transform="rotate(90 683.534 354.739)"></rect><rect width="9.935" height="82.796" x="678.566" y="201.705" fill="#99675e" opacity=".53" transform="rotate(90 683.534 243.103)"></rect><rect width="120.882" height="82.796" x="623.093" y="257.178" fill="none" stroke="#333" stroke-linecap="round" stroke-linejoin="round" stroke-miterlimit="10" stroke-width="8" transform="rotate(90 683.534 298.576)"></rect><path fill="none" stroke="#333" stroke-linecap="round" stroke-linejoin="round" stroke-miterlimit="10" stroke-width="10" d="
		M741.491,375.576h103.914c6.627,0,12-5.373,12-12v-130c0-6.627-5.373-12-12-12H741.491V375.576z"></path><rect width="120.882" height="82.796" x="739.007" y="257.178" fill="#f26b79" transform="rotate(90 799.448 298.576)"></rect><rect width="8.556" height="82.796" x="795.17" y="313.341" fill="#99675e" opacity=".5" transform="rotate(90 799.448 354.739)"></rect><rect width="9.935" height="82.796" x="794.48" y="201.705" fill="#99675e" opacity=".53" transform="rotate(90 799.448 243.103)"></rect><rect width="120.882" height="82.796" x="739.007" y="257.178" fill="none" stroke="#333" stroke-linecap="round" stroke-linejoin="round" stroke-miterlimit="10" stroke-width="8" transform="rotate(90 799.448 298.576)"></rect><line x1="703.925" x2="703.925" y1="278.429" y2="313.755" fill="none" stroke="#333" stroke-linecap="round" stroke-linejoin="round" stroke-miterlimit="10" stroke-width="10"></line><line x1="777.338" x2="777.338" y1="278.429" y2="313.755" fill="none" stroke="#333" stroke-linecap="round" stroke-linejoin="round" stroke-miterlimit="10" stroke-width="10"></line></g><g><circle cx="481.16" cy="254" r="56" fill="#ffe9bd"></circle><path fill="#e2e2e2" d="M481.16,220c27.162,0,49.801,19.34,54.913,45c0.709-3.557,1.087-7.234,1.087-11
		c0-30.928-25.072-56-56-56c-30.928,0-56,25.072-56,56c0,3.766,0.378,7.443,1.087,11C431.359,239.341,453.998,220,481.16,220z"></path><circle cx="481.16" cy="254" r="56" fill="none" stroke="#333" stroke-linecap="round" stroke-linejoin="round" stroke-miterlimit="10" stroke-width="10"></circle><circle cx="481.16" cy="254" r="46" fill="none" stroke="#333" stroke-linecap="round" stroke-linejoin="round" stroke-miterlimit="10" stroke-width="6" transform="rotate(-80.781 481.165 253.993)"></circle><polyline fill="none" stroke="#333" stroke-linecap="round" stroke-linejoin="round" stroke-miterlimit="10" stroke-width="6" points="466.494 225 481.16 254 505.994 254"></polyline><circle cx="481.16" cy="254" r="7.083" fill="#333"></circle></g><g><circle cx="756.25" cy="468.352" r="8.25" fill="#fff3e9"></circle><circle cx="756.25" cy="468.352" r="8.25" fill="none" stroke="#333" stroke-linecap="round" stroke-linejoin="round" stroke-miterlimit="10" stroke-width="8"></circle><rect width="67.071" height="190.333" x="779.705" y="535.667" fill="#f29f4d"></rect><rect width="67.071" height="10.688" x="779.705" y="715.312" fill="#db8945"></rect><rect width="67.071" height="12.833" x="779.705" y="535.667" fill="#db8945"></rect><rect width="251.071" height="40.667" x="595.705" y="495" fill="#f4b47a"></rect><rect width="251.071" height="8" x="595.705" y="527.667" fill="#db8945" opacity=".63"></rect><rect width="251.071" height="8.5" x="595.705" y="495" fill="#f9c59b"></rect><rect width="92" height="95.167" x="595.705" y="630.833" fill="#f29f4d"></rect><rect width="92" height="10.688" x="595.705" y="715.312" fill="#db8945"></rect><rect width="92" height="231" x="595.705" y="495" fill="none" stroke="#333" stroke-linecap="round" stroke-linejoin="round" stroke-miterlimit="10" stroke-width="10"></rect><rect width="92" height="231" x="687.705" y="495" fill="none" stroke="#333" stroke-linecap="round" stroke-linejoin="round" stroke-miterlimit="10" stroke-width="10"></rect><rect width="67.071" height="231" x="779.705" y="495" fill="none" stroke="#333" stroke-linecap="round" stroke-linejoin="round" stroke-miterlimit="10" stroke-width="10"></rect><rect width="92" height="190.333" x="595.705" y="535.667" fill="none" stroke="#333" stroke-linecap="round" stroke-linejoin="round" stroke-miterlimit="10" stroke-width="10"></rect><rect width="92" height="95.167" x="595.705" y="630.833" fill="none" stroke="#333" stroke-linecap="round" stroke-linejoin="round" stroke-miterlimit="10" stroke-width="10"></rect><rect width="92" height="95.167" x="595.705" y="535.667" fill="#f29f4d"></rect><rect width="92" height="12.833" x="595.705" y="535.667" fill="#db8945"></rect><rect width="92" height="95.167" x="595.705" y="535.667" fill="none" stroke="#333" stroke-linecap="round" stroke-linejoin="round" stroke-miterlimit="10" stroke-width="10"></rect><rect width="92" height="190.333" x="687.705" y="535.667" fill="#f29f4d"></rect><rect width="92" height="10.688" x="687.705" y="715.312" fill="#db8945"></rect><rect width="92" height="12.833" x="687.705" y="535.667" fill="#db8945"></rect><rect width="92" height="190.333" x="687.705" y="535.667" fill="none" stroke="#333" stroke-linecap="round" stroke-linejoin="round" stroke-miterlimit="10" stroke-width="10"></rect><rect width="138.159" height="53.125" x="664.626" y="610.104" fill="#f4b77f" transform="rotate(90 733.705 636.667)"></rect><polygon fill="#f9c59b" points="707.142 655.839 760.268 585.8 760.268 567.587 745.381 567.587 707.142 618" opacity=".39"></polygon><polygon fill="#f9c59b" points="707.142 683.511 760.268 613.473 760.268 599.517 707.142 669.556" opacity=".39"></polygon><polygon fill="#f9c59b" points="707.142 702.613 760.268 632.574 760.268 625.237 707.142 695.277" opacity=".39"></polygon><rect width="138.159" height="53.125" x="664.626" y="610.104" fill="none" stroke="#333" stroke-linecap="round" stroke-linejoin="round" stroke-miterlimit="10" stroke-width="6" transform="rotate(90 733.705 636.667)"></rect><rect width="46.08" height="53.125" x="618.665" y="564.064" fill="#f4b77f" transform="rotate(90 641.705 590.627)"></rect><polygon fill="#f9c59b" points="639.619 567.587 615.142 599.857 615.142 613.667 620.847 613.667 655.799 567.587" opacity=".43"></polygon><polygon fill="#f9c59b" points="638.315 613.667 668.268 574.177 668.268 567.587 662.666 567.587 627.714 613.667" opacity=".43"></polygon><rect width="46.08" height="53.125" x="618.665" y="564.064" fill="none" stroke="#333" stroke-linecap="round" stroke-linejoin="round" stroke-miterlimit="10" stroke-width="6" transform="rotate(90 641.705 590.627)"></rect><rect width="67.071" height="190.333" x="779.705" y="535.667" fill="none" stroke="#333" stroke-linecap="round" stroke-linejoin="round" stroke-miterlimit="10" stroke-width="10"></rect><rect width="138.159" height="31.519" x="744.161" y="620.907" fill="#f4b77f" transform="rotate(90 813.24 636.667)"></rect><polygon fill="#f9c59b" points="797.481 656.27 829 614.715 829 576.876 797.481 618.431" opacity=".32"></polygon><polygon fill="#f9c59b" points="797.481 678.417 829 636.863 829 622.907 797.481 664.461" opacity=".32"></polygon><polygon fill="#f9c59b" points="797.481 693.97 829 652.416 829 645.08 797.481 686.634" opacity=".32"></polygon><rect width="138.159" height="31.519" x="744.161" y="620.907" fill="none" stroke="#333" stroke-linecap="round" stroke-linejoin="round" stroke-miterlimit="10" stroke-width="6" transform="rotate(90 813.24 636.667)"></rect><rect width="216" height="231" x="379.705" y="495" fill="none" stroke="#333" stroke-linecap="round" stroke-linejoin="round" stroke-miterlimit="10" stroke-width="10"></rect><rect width="216" height="184.623" x="379.705" y="535.667" fill="#f29f4d"></rect><rect width="216" height="9.957" x="379.705" y="710.333" fill="#db8945"></rect><rect width="216" height="12.833" x="379.705" y="535.667" fill="#db8945"></rect><rect width="216" height="184.623" x="379.705" y="535.667" fill="none" stroke="#333" stroke-linecap="round" stroke-linejoin="round" stroke-miterlimit="10" stroke-width="10"></rect><path fill="#cfe5e8" d="M412.342,667.966v-58.933c0-11.617,9.417-21.034,21.034-21.034h108.658
		c11.617,0,21.034,9.417,21.034,21.034v58.933c0,11.617-9.417,21.034-21.034,21.034H433.376
		C421.759,689,412.342,679.583,412.342,667.966z"></path><path fill="#a7e3e8" d="M433.376,675c-3.878,0-7.034-3.155-7.034-7.034v-58.932
		c0-3.879,3.155-7.034,7.034-7.034h108.658c3.878,0,7.033,3.155,7.033,7.034v58.932c0,3.879-3.155,7.034-7.033,7.034H433.376z"></path><path fill="none" stroke="#333" stroke-linecap="round" stroke-linejoin="round" stroke-miterlimit="10" stroke-width="8" d="
		M412.342,667.966v-58.933c0-11.617,9.417-21.034,21.034-21.034h108.658c11.617,0,21.034,9.417,21.034,21.034v58.933
		c0,11.617-9.417,21.034-21.034,21.034H433.376C421.759,689,412.342,679.583,412.342,667.966z"></path><line x1="527.263" x2="448.147" y1="561.5" y2="561.5" fill="none" stroke="#333" stroke-linecap="round" stroke-linejoin="round" stroke-miterlimit="10" stroke-width="10"></line><rect width="40.667" height="216" x="467.371" y="407.333" fill="#f4b47a" transform="rotate(90 487.705 515.333)"></rect><rect width="8" height="216" x="483.705" y="423.667" fill="#db8945" opacity=".63" transform="rotate(90 487.705 531.667)"></rect><rect width="8.5" height="216" x="483.455" y="391.25" fill="#f9c59b" transform="rotate(90 487.705 499.25)"></rect><rect width="40.667" height="216" x="467.371" y="407.333" fill="none" stroke="#333" stroke-linecap="round" stroke-linejoin="round" stroke-miterlimit="10" stroke-width="10" transform="rotate(90 487.705 515.333)"></rect><line x1="401" x2="447.667" y1="515.333" y2="515.333" fill="none" stroke="#333" stroke-linecap="round" stroke-linejoin="round" stroke-miterlimit="10" stroke-width="12"></line><circle cx="527.263" cy="515.333" r="7.115" fill="#ea5050"></circle><circle cx="527.263" cy="515.333" r="7.115" fill="none" stroke="#333" stroke-linecap="round" stroke-linejoin="round" stroke-miterlimit="10" stroke-width="4"></circle><circle cx="548.723" cy="515.333" r="7.115" fill="#7dc163"></circle><circle cx="548.723" cy="515.333" r="7.115" fill="none" stroke="#333" stroke-linecap="round" stroke-linejoin="round" stroke-miterlimit="10" stroke-width="4"></circle><circle cx="570.183" cy="515.333" r="7.115" fill="none" stroke="#333" stroke-linecap="round" stroke-linejoin="round" stroke-miterlimit="10" stroke-width="4"></circle><circle cx="570.183" cy="515.333" r="7.115" fill="#333"></circle><path fill="#fff3e9" d="M729.714,486.458c12.318,0,22.304-13.189,22.304-29.458H707.41
		C707.41,473.269,717.395,486.458,729.714,486.458z"></path><path fill="#c4cecd" d="M740.241,457c0,13.576-6.956,25-16.416,28.412
		c1.877,0.677,3.849,1.045,5.889,1.045c12.318,0,22.304-13.189,22.304-29.458H740.241z" opacity=".45"></path><path fill="none" stroke="#333" stroke-linecap="round" stroke-linejoin="round" stroke-miterlimit="10" stroke-width="8" d="
		M729.714,486.458c12.318,0,22.304-13.189,22.304-29.458H707.41C707.41,473.269,717.395,486.458,729.714,486.458z"></path><line x1="711.427" x2="748" y1="490" y2="490" fill="none" stroke="#333" stroke-linecap="round" stroke-linejoin="round" stroke-miterlimit="10" stroke-width="10"></line><path fill="none" stroke="#333" stroke-linecap="round" stroke-linejoin="round" stroke-miterlimit="10" stroke-width="6" d="M721.937 422.667c0 0-4 6-4 8.667 0 2.667 8.917 2 8.917 6s-4.458 10.084-4.458 10.084M736.574 417.093c0 0-4 6-4 8.667 0 2.667 8.917 2 8.917 6s-4.458 10.084-4.458 10.084"></path><line x1="729.308" x2="726.853" y1="403" y2="409.333" fill="none" stroke="#333" stroke-linecap="round" stroke-linejoin="round" stroke-miterlimit="10" stroke-width="6"></line><rect width="251.071" height="40.667" x="595.705" y="495" fill="none" stroke="#333" stroke-linecap="round" stroke-linejoin="round" stroke-miterlimit="10" stroke-width="10"></rect><line x1="631.057" x2="652.352" y1="551" y2="551" fill="none" stroke="#333" stroke-linecap="round" stroke-linejoin="round" stroke-miterlimit="10" stroke-width="8"></line><rect width="46.08" height="53.125" x="618.665" y="656.144" fill="#f4b77f" transform="rotate(90 641.705 682.706)"></rect><polygon fill="#f9c59b" points="639.619 659.667 615.142 691.937 615.142 705.746 620.847 705.746 655.799 659.667" opacity=".43"></polygon><polygon fill="#f9c59b" points="638.315 705.746 668.268 666.257 668.268 659.667 662.666 659.667 627.714 705.746" opacity=".43"></polygon><rect width="46.08" height="53.125" x="618.665" y="656.144" fill="none" stroke="#333" stroke-linecap="round" stroke-linejoin="round" stroke-miterlimit="10" stroke-width="6" transform="rotate(90 641.705 682.706)"></rect><line x1="631.057" x2="652.352" y1="645.08" y2="645.08" fill="none" stroke="#333" stroke-linecap="round" stroke-linejoin="round" stroke-miterlimit="10" stroke-width="8"></line><path fill="none" stroke="#333" stroke-linecap="round" stroke-linejoin="round" stroke-miterlimit="10" stroke-width="10" d="
		M707.142,548.5"></path><line x1="724.5" x2="707.142" y1="551" y2="551" fill="none" stroke="#333" stroke-linecap="round" stroke-linejoin="round" stroke-miterlimit="10" stroke-width="8"></line><line x1="810.5" x2="797.481" y1="551" y2="551" fill="none" stroke="#333" stroke-linecap="round" stroke-linejoin="round" stroke-miterlimit="10" stroke-width="8"></line><g><path fill="#333" d="M521.977,495h-70.981c-2.92,0-5.286-2.367-5.286-5.286v0
			c0-2.92,2.367-5.286,5.286-5.286h70.981c2.92,0,5.286,2.367,5.286,5.286v0C527.263,492.633,524.896,495,521.977,495z"></path><polygon fill="#fff3e9" points="534.378 457 568 429.468 563.067 422.667 525 441.844"></polygon><polygon fill="none" stroke="#333" stroke-linecap="round" stroke-linejoin="round" stroke-miterlimit="10" stroke-width="10" points="534.378 457 568 429.468 563.067 422.667 525 441.844"></polygon><path fill="#dbdddd" d="M520.036,484.427h-66.859c-10.197,0-18.464-8.266-18.464-18.464V441.13
			c0-10.197,8.266-18.464,18.464-18.464h66.859c10.197,0,18.464,8.267,18.464,18.464v24.833
			C538.5,476.161,530.234,484.427,520.036,484.427z"></path><path fill="#fff" d="M448.107,465.964V441.13c0-10.197,8.266-18.464,18.464-18.464h-13.393
			c-10.197,0-18.464,8.267-18.464,18.464v24.833c0,10.197,8.267,18.464,18.464,18.464h13.393
			C456.373,484.427,448.107,476.161,448.107,465.964z" opacity=".55"></path><path fill="#c4cecd" d="M520.036,422.667h-18.352c10.197,0,18.464,8.267,18.464,18.464v24.833
			c0,10.197-8.266,18.464-18.464,18.464h18.352c10.197,0,18.464-8.266,18.464-18.464V441.13
			C538.5,430.933,530.234,422.667,520.036,422.667z"></path><path fill="none" stroke="#333" stroke-linecap="round" stroke-linejoin="round" stroke-miterlimit="10" stroke-width="10" d="
			M520.036,484.427h-66.859c-10.197,0-18.464-8.266-18.464-18.464V441.13c0-10.197,8.266-18.464,18.464-18.464h66.859
			c10.197,0,18.464,8.267,18.464,18.464v24.833C538.5,476.161,530.234,484.427,520.036,484.427z"></path><rect width="12.714" height="14.054" x="422" y="443.946" fill="#333"></rect><rect width="12.714" height="14.054" x="422" y="443.946" fill="none" stroke="#333" stroke-linecap="round" stroke-linejoin="round" stroke-miterlimit="10" stroke-width="10"></rect><ellipse cx="486.998" cy="421.75" fill="none" stroke="#333" stroke-linecap="round" stroke-linejoin="round" stroke-miterlimit="10" stroke-width="10" rx="44.332" ry="7.75"></ellipse><rect width="9.667" height="14.667" x="481.667" y="403" fill="none" stroke="#333" stroke-linecap="round" stroke-linejoin="round" stroke-miterlimit="10" stroke-width="10"></rect><polyline fill="none" stroke="#333" stroke-linecap="round" stroke-linejoin="round" stroke-miterlimit="10" stroke-width="6" points="577.298 392.5 574 398.5 580.465 406.167 574 414"></polyline></g><polygon fill="#d7fff7" points="464.075 675 519.446 602 498.246 602 442.875 675"></polygon><path fill="#d7fff7" d="M487.032,675l55.358-72.982c-0.119-0.006-0.236-0.018-0.356-0.018h-10.231
		l-55.371,73H487.032z"></path></g><line x1="452.136" x2="531.33" y1="774.577" y2="774.577" fill="none" stroke="#1d2f3d" stroke-linecap="round" stroke-linejoin="round" stroke-miterlimit="10" stroke-width="10"></line><line x1="417.345" x2="430.004" y1="774.577" y2="774.577" fill="none" stroke="#1d2f3d" stroke-linecap="round" stroke-linejoin="round" stroke-miterlimit="10" stroke-width="10"></line><g><path fill="#aecbd9" d="M335,726H157c-6.627,0-12-5.373-12-12V242c0-6.627,5.373-12,12-12h178
		c6.627,0,12,5.373,12,12v472C347,720.627,341.627,726,335,726z"></path><path fill="#c4e7f4" d="M159.463,714V242c0-6.627,5.756-12,12.857-12h-14.463
		c-7.101,0-12.857,5.373-12.857,12v472c0,6.627,5.756,12,12.857,12h14.463C165.219,726,159.463,720.627,159.463,714z"></path><path fill="#8ca2ae" d="M335,230h-22.499c6.627,0,12,5.373,12,12v472c0,6.627-5.373,12-12,12
		H335c6.627,0,12-5.373,12-12V242C347,235.373,341.627,230,335,230z" opacity=".89"></path><path fill="none" stroke="#333" stroke-linecap="round" stroke-linejoin="round" stroke-miterlimit="10" stroke-width="10" d="
		M335,726H157c-6.627,0-12-5.373-12-12V242c0-6.627,5.373-12,12-12h178c6.627,0,12,5.373,12,12v472C347,720.627,341.627,726,335,726
		z"></path><path fill="none" stroke="#333" stroke-linecap="round" stroke-linejoin="round" stroke-miterlimit="10" stroke-width="10" d="
		M347,382H145V242c0-6.627,5.373-12,12-12h178c6.627,0,12,5.373,12,12V382z"></path><line x1="172.32" x2="172.32" y1="301.667" y2="348" fill="none" stroke="#333" stroke-linecap="round" stroke-linejoin="round" stroke-miterlimit="10" stroke-width="10"></line><line x1="172.32" x2="172.32" y1="459.881" y2="544" fill="none" stroke="#333" stroke-linecap="round" stroke-linejoin="round" stroke-miterlimit="10" stroke-width="10"></line><rect width="202" height="27.333" x="145" y="382" fill="#64809b"></rect><rect width="23" height="27.333" x="324" y="382" fill="#8ca2ae" opacity=".71"></rect><rect width="14.463" height="27.333" x="145" y="382" fill="#64809b" opacity=".26"></rect><rect width="202" height="27.333" x="145" y="382" fill="none" stroke="#333" stroke-linecap="round" stroke-linejoin="round" stroke-miterlimit="10" stroke-width="10"></rect><line x1="207" x2="284" y1="395.667" y2="395.667" fill="none" stroke="#333" stroke-linecap="round" stroke-linejoin="round" stroke-miterlimit="10" stroke-width="6"></line></g></svg>