<svg width="240" height="239" viewBox="0 0 240 239" fill="none" xmlns="http://www.w3.org/2000/svg">
<path d="M119.934 238.38C185.76 238.38 239.123 185.017 239.123 119.19C239.123 53.3632 185.76 0 119.934 0C54.1067 0 0.74353 53.3632 0.74353 119.19C0.74353 185.017 54.1067 238.38 119.934 238.38Z" fill="#3DBC93"/>
<path fill-rule="evenodd" clip-rule="evenodd" d="M207.023 200.552C195.886 212.504 182.404 222.031 167.42 228.54C152.435 235.049 136.27 238.398 119.933 238.38C114.986 238.38 110.043 238.074 105.133 237.466C90.0748 235.308 75.5055 230.552 62.0743 223.41C50.7389 217.101 40.5045 208.991 31.7715 199.398L36.7204 187.441L90.433 163.479C90.433 180.972 95.486 202.129 119.127 202.488C148.327 202.928 151.798 181.369 151.798 163.337L201.133 187.568L207.023 200.552Z" fill="#E9573E"/>
<mask id="mask0_125_30" style="mask-type:luminance" maskUnits="userSpaceOnUse" x="31" y="163" width="177" height="76">
<path fill-rule="evenodd" clip-rule="evenodd" d="M207.023 200.552C195.886 212.504 182.404 222.031 167.42 228.54C152.435 235.049 136.27 238.398 119.933 238.38C114.986 238.38 110.043 238.074 105.133 237.466C90.0748 235.308 75.5055 230.552 62.0743 223.41C50.7389 217.101 40.5045 208.991 31.7715 199.398L36.7204 187.441L90.433 163.479C90.433 180.972 95.486 202.129 119.127 202.488C148.327 202.928 151.798 181.369 151.798 163.337L201.133 187.568L207.023 200.552Z" fill="white"/>
</mask>
<g mask="url(#mask0_125_30)">
<path opacity="0.18" fill-rule="evenodd" clip-rule="evenodd" d="M3.42048 288V285.061H257.253V288H3.42048ZM39.6828 129.94V138.569H48.2267V129.94H39.6828ZM39.6828 141.512V150.153H48.2267V141.512H39.6828ZM39.6828 153.092V160.266H48.2267V153.092H39.6828ZM39.6828 163.206V171.846H48.2267V163.206H39.6828ZM39.6828 174.785V183.414H48.2267V174.785H39.6828ZM39.6828 186.357V194.997H48.2267V186.357H39.6828ZM39.6828 197.937V205.481H48.2267V197.937H39.6828ZM39.6828 208.421V217.061H48.2267V208.421H39.6828ZM39.6828 220.004V228.633H48.2267V220.004H39.6828ZM39.6828 231.572V240.212H48.2267V231.572H39.6828ZM39.6828 243.152V250.326H48.2267V243.152H39.6828ZM39.6828 253.269V261.867H36.7782V253.265H3.42048V250.326H36.7782V243.152H3.42048V240.212H36.7782V231.572H3.42048V228.633H36.7782V220.004H3.42048V217.061H36.7782V208.421H3.42048V205.481H36.7782V197.937H3.42048V194.997H36.7782V186.357H3.42048V183.414H36.7782V174.785H3.42048V171.846H36.7782V163.206H3.42048V160.266H36.7782V153.092H3.42048V150.149H36.7782V141.508H3.42048V138.569H36.7782V129.94H3.42048V126.997H257.253V129.94H207.417V138.569H257.253V141.508H207.417V150.149H257.253V153.092H207.417V160.266H257.253V163.206H207.417V171.846H257.253V174.785H207.417V183.414H257.253V186.357H207.417V194.997H257.253V197.937H207.417V205.481H257.253V208.421H207.417V217.061H257.253V220.004H207.417V228.633H257.253V231.572H207.417V240.212H257.253V243.152H207.417V250.326H257.253V253.265H207.417V261.867H204.504V253.265H195.964V261.867H193.052V253.265H184.524V261.867H181.615V253.265H173.071V261.867H170.163V253.265H163.073V261.867H160.165V253.265H151.621V261.867H148.713V253.265H140.184V261.867H137.276V253.265H128.732V261.867H125.824V253.265H118.367V261.867H115.459V253.265H106.915V261.867H104.011V253.265H95.4783V261.867H92.57V253.265H84.0222V261.867H81.1138V253.265H74.0319V261.867H71.1235V253.265H62.5757V261.867H59.6674V253.265H51.135V261.867H48.2267V253.265L39.6828 253.269ZM134.676 115.418H257.26V118.357H3.41663V115.418H134.676ZM204.508 129.94H195.968V138.569H204.508V129.94ZM193.056 129.94H184.528V138.569H193.056V129.94ZM181.619 129.94H173.075V138.569H181.619V129.94ZM170.167 129.94H163.077V138.569H170.167V129.94ZM160.169 129.94H151.625V138.569H160.169V129.94ZM148.717 129.94H140.184V138.569H148.717V129.94ZM137.276 129.94H128.732V138.569H137.276V129.94ZM125.824 129.94H118.367V138.569H125.824V129.94ZM115.459 129.94H106.915V138.569H115.463L115.459 129.94ZM104.007 129.94H95.4783V138.569H104.011L104.007 129.94ZM92.57 129.94H84.0222V138.569H92.5661L92.57 129.94ZM81.1177 129.94H74.0319V138.569H81.1215L81.1177 129.94ZM71.1196 129.94H62.5757V138.569H71.1196V129.94ZM59.6635 129.94H51.1389V138.569H59.6635V129.94ZM204.508 141.512H195.968V150.153H204.508V141.512ZM193.056 141.512H184.528V150.153H193.056V141.512ZM181.619 141.512H173.075V150.153H181.619V141.512ZM170.167 141.512H163.077V150.153H170.167V141.512ZM160.169 141.512H151.625V150.153H160.169V141.512ZM148.717 141.512H140.184V150.153H148.717V141.512ZM137.276 141.512H128.732V150.153H137.276V141.512ZM125.824 141.512H118.367V150.153H125.824V141.512ZM115.459 141.512H106.915V150.153H115.463L115.459 141.512ZM104.007 141.512H95.4783V150.153H104.011L104.007 141.512ZM92.57 141.512H84.0222V150.153H92.5661L92.57 141.512ZM81.1177 141.512H74.0319V150.153H81.1215L81.1177 141.512ZM71.1196 141.512H62.5757V150.153H71.1196V141.512ZM59.6635 141.512H51.1389V150.153H59.6635V141.512ZM204.508 153.092H195.968V160.266H204.508V153.092ZM193.056 153.092H184.528V160.266H193.056V153.092ZM181.619 153.092H173.075V160.266H181.619V153.092ZM170.167 153.092H163.077V160.266H170.167V153.092ZM160.169 153.092H151.625V160.266H160.169V153.092ZM148.717 153.092H140.184V160.266H148.717V153.092ZM137.276 153.092H128.732V160.266H137.276V153.092ZM125.824 153.092H118.367V160.266H125.824V153.092ZM115.459 153.092H106.915V160.266H115.463L115.459 153.092ZM104.007 153.092H95.4783V160.266H104.011L104.007 153.092ZM92.57 153.092H84.0222V160.266H92.5661L92.57 153.092ZM81.1177 153.092H74.0319V160.266H81.1215L81.1177 153.092ZM71.1196 153.092H62.5757V160.266H71.1196V153.092ZM59.6635 153.092H51.1389V160.266H59.6635V153.092ZM204.508 163.206H195.968V171.846H204.508V163.206ZM193.056 163.206H184.528V171.846H193.056V163.206ZM181.619 163.206H173.075V171.846H181.619V163.206ZM170.167 163.206H163.077V171.846H170.167V163.206ZM160.169 163.206H151.625V171.846H160.169V163.206ZM148.717 163.206H140.184V171.846H148.717V163.206ZM137.276 163.206H128.732V171.846H137.276V163.206ZM125.824 163.206H118.367V171.846H125.824V163.206ZM115.459 163.206H106.915V171.846H115.463L115.459 163.206ZM104.007 163.206H95.4783V171.846H104.011L104.007 163.206ZM92.57 163.206H84.0222V171.846H92.5661L92.57 163.206ZM81.1177 163.206H74.0319V171.846H81.1215L81.1177 163.206ZM71.1196 163.206H62.5757V171.846H71.1196V163.206ZM59.6635 163.206H51.1389V171.846H59.6635V163.206ZM204.508 174.785H195.968V183.414H204.508V174.785ZM193.056 174.785H184.528V183.414H193.056V174.785ZM181.619 174.785H173.075V183.414H181.619V174.785ZM170.167 174.785H163.077V183.414H170.167V174.785ZM160.169 174.785H151.625V183.414H160.169V174.785ZM148.717 174.785H140.184V183.414H148.717V174.785ZM137.276 174.785H128.732V183.414H137.276V174.785ZM125.824 174.785H118.367V183.414H125.824V174.785ZM115.459 174.785H106.915V183.414H115.463L115.459 174.785ZM104.007 174.785H95.4783V183.414H104.011L104.007 174.785ZM92.57 174.785H84.0222V183.414H92.5661L92.57 174.785ZM81.1177 174.785H74.0319V183.414H81.1215L81.1177 174.785ZM71.1196 174.785H62.5757V183.414H71.1196V174.785ZM59.6635 174.785H51.1389V183.414H59.6635V174.785ZM204.508 186.357H195.968V194.997H204.508V186.357ZM193.056 186.357H184.528V194.997H193.056V186.357ZM181.619 186.357H173.075V194.997H181.619V186.357ZM170.167 186.357H163.077V194.997H170.167V186.357ZM160.169 186.357H151.625V194.997H160.169V186.357ZM148.717 186.357H140.184V194.997H148.717V186.357ZM137.276 186.357H128.732V194.997H137.276V186.357ZM125.824 186.357H118.367V194.997H125.824V186.357ZM115.459 186.357H106.915V194.997H115.463L115.459 186.357ZM104.007 186.357H95.4783V194.997H104.011L104.007 186.357ZM92.57 186.357H84.0222V194.997H92.5661L92.57 186.357ZM81.1177 186.357H74.0319V194.997H81.1215L81.1177 186.357ZM71.1196 186.357H62.5757V194.997H71.1196V186.357ZM59.6635 186.357H51.1389V194.997H59.6635V186.357ZM204.508 197.937H195.968V205.481H204.508V197.937ZM193.056 197.937H184.528V205.481H193.056V197.937ZM181.619 197.937H173.075V205.481H181.619V197.937ZM170.167 197.937H163.077V205.481H170.167V197.937ZM160.169 197.937H151.625V205.481H160.169V197.937ZM148.717 197.937H140.184V205.481H148.717V197.937ZM137.276 197.937H128.732V205.481H137.276V197.937ZM125.824 197.937H118.367V205.481H125.824V197.937ZM115.459 197.937H106.915V205.481H115.463L115.459 197.937ZM104.007 197.937H95.4783V205.481H104.011L104.007 197.937ZM92.57 197.937H84.0222V205.481H92.5661L92.57 197.937ZM81.1177 197.937H74.0319V205.481H81.1215L81.1177 197.937ZM71.1196 197.937H62.5757V205.481H71.1196V197.937ZM59.6635 197.937H51.1389V205.481H59.6635V197.937ZM204.508 208.421H195.968V217.061H204.508V208.421ZM193.056 208.421H184.528V217.061H193.056V208.421ZM181.619 208.421H173.075V217.061H181.619V208.421ZM170.167 208.421H163.077V217.061H170.167V208.421ZM160.169 208.421H151.625V217.061H160.169V208.421ZM148.717 208.421H140.184V217.061H148.717V208.421ZM137.276 208.421H128.732V217.061H137.276V208.421ZM125.824 208.421H118.367V217.061H125.824V208.421ZM115.459 208.421H106.915V217.061H115.463L115.459 208.421ZM104.007 208.421H95.4783V217.061H104.011L104.007 208.421ZM92.57 208.421H84.0222V217.061H92.5661L92.57 208.421ZM81.1177 208.421H74.0319V217.061H81.1215L81.1177 208.421ZM71.1196 208.421H62.5757V217.061H71.1196V208.421ZM59.6635 208.421H51.1389V217.061H59.6635V208.421ZM204.508 220.004H195.968V228.633H204.508V220.004ZM193.056 220.004H184.528V228.633H193.056V220.004ZM181.619 220.004H173.075V228.633H181.619V220.004ZM170.167 220.004H163.077V228.633H170.167V220.004ZM160.169 220.004H151.625V228.633H160.169V220.004ZM148.717 220.004H140.184V228.633H148.717V220.004ZM137.276 220.004H128.732V228.633H137.276V220.004ZM125.824 220.004H118.367V228.633H125.824V220.004ZM115.459 220.004H106.915V228.633H115.463L115.459 220.004ZM104.007 220.004H95.4783V228.633H104.011L104.007 220.004ZM92.57 220.004H84.0222V228.633H92.5661L92.57 220.004ZM81.1177 220.004H74.0319V228.633H81.1215L81.1177 220.004ZM71.1196 220.004H62.5757V228.633H71.1196V220.004ZM59.6635 220.004H51.1389V228.633H59.6635V220.004ZM204.508 231.572H195.968V240.212H204.508V231.572ZM193.056 231.572H184.528V240.212H193.056V231.572ZM181.619 231.572H173.075V240.212H181.619V231.572ZM170.167 231.572H163.077V240.212H170.167V231.572ZM160.169 231.572H151.625V240.212H160.169V231.572ZM148.717 231.572H140.184V240.212H148.717V231.572ZM137.276 231.572H128.732V240.212H137.276V231.572ZM125.824 231.572H118.367V240.212H125.824V231.572ZM115.459 231.572H106.915V240.212H115.463L115.459 231.572ZM104.007 231.572H95.4783V240.212H104.011L104.007 231.572ZM92.57 231.572H84.0222V240.212H92.5661L92.57 231.572ZM81.1177 231.572H74.0319V240.212H81.1215L81.1177 231.572ZM71.1196 231.572H62.5757V240.212H71.1196V231.572ZM59.6635 231.572H51.1389V240.212H59.6635V231.572ZM204.508 243.152H195.968V250.326H204.508V243.152ZM193.056 243.152H184.528V250.326H193.056V243.152ZM181.619 243.152H173.075V250.326H181.619V243.152ZM170.167 243.152H163.077V250.326H170.167V243.152ZM160.169 243.152H151.625V250.326H160.169V243.152ZM148.717 243.152H140.184V250.326H148.717V243.152ZM137.276 243.152H128.732V250.326H137.276V243.152ZM125.824 243.152H118.367V250.326H125.824V243.152ZM115.459 243.152H106.915V250.326H115.463L115.459 243.152ZM104.007 243.152H95.4783V250.326H104.011L104.007 243.152ZM92.57 243.152H84.0222V250.326H92.5661L92.57 243.152ZM81.1177 243.152H74.0319V250.326H81.1215L81.1177 243.152ZM71.1196 243.152H62.5757V250.326H71.1196V243.152ZM59.6635 243.152H51.1389V250.326H59.6635V243.152ZM134.68 261.91H257.264V264.849H3.41663V261.91H134.672H134.68ZM134.68 273.478H257.264V276.421H3.41663V273.478H134.672H134.68Z" fill="black"/>
</g>
<path fill-rule="evenodd" clip-rule="evenodd" d="M90.4446 149.2L151.802 149.666V199.495L90.4446 199.028V149.2Z" fill="#F9DCA4"/>
<path fill-rule="evenodd" clip-rule="evenodd" d="M151.802 234.067C131.751 239.595 110.606 239.813 90.4446 234.7V183.552C105.573 201.732 136.146 201.543 151.802 184.019V234.067Z" fill="#677079"/>
<path opacity="0.11" fill-rule="evenodd" clip-rule="evenodd" d="M151.814 167.637V176.347C151.814 176.968 151.822 181.979 151.802 182.006C133.48 195.398 95.7213 187.271 90.4446 169.956L151.814 167.637Z" fill="black"/>
<path fill-rule="evenodd" clip-rule="evenodd" d="M120.817 32.5245C202.904 32.5245 170.911 168.555 120.817 168.555C73.5035 168.555 38.7301 32.5245 120.817 32.5245Z" fill="#FFE8BE"/>
<path fill-rule="evenodd" clip-rule="evenodd" d="M71.5825 92.7521C59.7407 97.917 69.8082 122.399 77.2604 122.291C74.1693 112.712 72.2625 102.795 71.5825 92.7521ZM171.004 92.7483C182.846 97.9132 172.778 122.399 165.33 122.287C168.419 112.709 170.324 102.789 171.004 92.7483Z" fill="#F9DCA4"/>
<path fill-rule="evenodd" clip-rule="evenodd" d="M90.4562 205.358L81.1833 196.733L62.6567 205.828L90.4484 153.176L90.4562 205.358ZM151.783 205.358L161.056 196.729L179.586 205.828L151.791 153.173L151.783 205.358Z" fill="#434955"/>
<path fill-rule="evenodd" clip-rule="evenodd" d="M71.594 92.3433C60.6702 73.2112 57.3684 60.675 62.8457 51.2633C70.7493 37.6856 88.1919 39.3481 89.7117 36.1504C105.237 3.44456 185.523 28.2507 182.171 78.9277C180.534 75.546 178.567 72.334 176.3 69.3385C176.3 69.3385 176.011 88.5902 170.757 96.1736C164.342 85.0878 145.966 74.0058 145.966 74.0058C145.966 74.0058 150.923 90.6307 154.132 94.1331C149.989 93.7705 103.374 80.7136 91.4127 41.9171C75.9566 50.6692 71.0077 78.0444 71.5863 92.3394L71.594 92.3433Z" fill="#DC7A17"/>
<path fill-rule="evenodd" clip-rule="evenodd" d="M120.898 179.529C110.637 179.614 62.8341 180.054 71.54 91.9189C71.54 91.9189 74.7608 117.315 82.9576 128.393C83.6622 129.634 84.6266 130.707 85.7848 131.54C86.943 132.373 88.2675 132.946 89.6677 133.219C91.0679 133.493 92.5106 133.46 93.897 133.124C95.2834 132.787 96.5807 132.155 97.7001 131.271C102.175 128.05 103.089 121.986 108.632 120.019C110.749 119.037 113.137 118.801 115.406 119.348C117.676 119.896 119.693 121.196 121.129 123.036C122.539 121.193 124.538 119.888 126.793 119.339C129.048 118.79 131.423 119.03 133.523 120.019C139.066 121.986 139.984 128.05 144.454 131.271C145.573 132.155 146.871 132.786 148.256 133.122C149.642 133.458 151.085 133.49 152.484 133.217C153.884 132.944 155.208 132.371 156.366 131.539C157.524 130.706 158.488 129.633 159.193 128.393C167.393 117.311 170.618 91.9189 170.618 91.9189C179.32 180.058 131.158 179.614 120.898 179.529Z" fill="#DC7A17"/>
<path fill-rule="evenodd" clip-rule="evenodd" d="M93.0869 138.303C93.0869 138.303 114.842 144.856 120.987 124.802L121.075 124.513L121.16 124.802C127.301 144.856 149.064 138.303 149.064 138.303C137.581 147.784 129.098 137.508 120.963 137.709C112.196 137.925 104.242 147.514 93.083 138.303H93.0869Z" fill="#362008"/>
</svg>
