<svg width="270" height="269" viewBox="0 0 270 269" fill="none" xmlns="http://www.w3.org/2000/svg">
<path d="M135 268.218C209.066 268.218 269.109 208.175 269.109 134.109C269.109 60.0426 209.066 0 135 0C60.9337 0 0.891113 60.0426 0.891113 134.109C0.891113 208.175 60.9337 268.218 135 268.218Z" fill="#3DBC93"/>
<path fill-rule="evenodd" clip-rule="evenodd" d="M101.82 167.875L170.858 168.4V224.465L101.82 223.94V167.875Z" fill="#F9DCA4"/>
<path opacity="0.11" fill-rule="evenodd" clip-rule="evenodd" d="M170.871 168.3V183.838C170.859 185.553 170.717 187.265 170.446 188.959C170.104 191.049 169.529 193.095 168.731 195.057C145.408 213.129 108.235 198.303 102.302 167.432L170.871 168.3Z" fill="black"/>
<path fill-rule="evenodd" clip-rule="evenodd" d="M135.994 36.5957C228.355 36.5957 192.359 189.653 135.994 189.653C82.7583 189.653 43.6324 36.5957 135.994 36.5957Z" fill="#FFE8BE"/>
<path fill-rule="evenodd" clip-rule="evenodd" d="M80.597 104.362C67.2729 110.173 78.6005 137.72 86.9856 137.598C83.5075 126.82 81.362 115.661 80.597 104.362ZM192.441 104.362C205.765 110.173 194.459 137.72 186.079 137.594C189.547 126.818 191.684 115.657 192.441 104.362Z" fill="#F9DCA4"/>
<path fill-rule="evenodd" clip-rule="evenodd" d="M192.389 104.9C192.389 104.9 226.936 53.7521 180.949 34.009C175.191 24.851 166.699 17.7357 156.675 13.6699C146.651 9.60408 135.602 8.7938 125.092 11.3537C99.7367 16.5141 90.3144 29.0787 90.3144 29.0787C90.3144 29.0787 66.3136 50.8399 45.0038 51.2869C52.9476 56.8756 62.5687 59.5688 72.2596 58.9168C69.343 66.2082 63.7313 90.2089 80.892 106.024C99.8496 93.5768 115.665 69.2332 115.665 69.2332C115.665 69.2332 119.927 83.3689 116.563 90.3261C129.058 87.9553 140.829 82.7086 150.946 75.0012C161.978 66.1648 167.841 56.3518 173.991 56.226C188.123 55.9265 192.276 98.4985 192.393 104.904L192.389 104.9Z" fill="#020202"/>
<path fill-rule="evenodd" clip-rule="evenodd" d="M232.895 225.78C220.383 239.227 205.23 249.947 188.386 257.27C171.542 264.594 153.368 268.364 135 268.344C129.439 268.343 123.883 268 118.364 267.315C101.44 264.886 85.0653 259.535 69.9724 251.5C57.2279 244.4 45.7226 235.275 35.907 224.483L41.471 211.028L101.842 184.068C104.554 200.226 135.72 219.548 135.72 219.548C135.72 219.548 167.026 204.74 170.819 183.911L226.272 211.172L232.895 225.78Z" fill="#498BD9"/>
<mask id="mask0_123_5" style="mask-type:luminance" maskUnits="userSpaceOnUse" x="35" y="183" width="198" height="86">
<path fill-rule="evenodd" clip-rule="evenodd" d="M232.895 225.78C220.383 239.227 205.23 249.947 188.386 257.27C171.542 264.594 153.368 268.364 135 268.344C129.439 268.343 123.883 268 118.364 267.315C101.44 264.886 85.0653 259.535 69.9724 251.5C57.2279 244.4 45.7226 235.275 35.907 224.483L41.471 211.028L101.842 184.068C104.554 200.226 135.72 219.548 135.72 219.548C135.72 219.548 167.026 204.74 170.819 183.911L226.272 211.172L232.895 225.78Z" fill="white"/>
</mask>
<g mask="url(#mask0_123_5)">
<path fill-rule="evenodd" clip-rule="evenodd" d="M62.1385 201.797L91.712 188.594L136.02 249.26L180.844 188.768L206.664 201.055V288H62.1385V201.797Z" fill="#545F69"/>
<mask id="mask1_123_5" style="mask-type:luminance" maskUnits="userSpaceOnUse" x="62" y="188" width="145" height="100">
<path fill-rule="evenodd" clip-rule="evenodd" d="M62.1385 201.797L91.712 188.594L136.02 249.26L180.844 188.768L206.664 201.055V288H62.1385V201.797Z" fill="white"/>
</mask>
<g mask="url(#mask1_123_5)">
<path fill-rule="evenodd" clip-rule="evenodd" d="M164.903 186.108H168.08V278.908H164.903V186.108ZM100.778 186.108H103.951V278.908H100.783V186.108H100.778ZM87.8405 186.108H91.0132V278.908H87.8405V186.108ZM75.0633 186.108H78.2359V278.908H75.0676L75.0633 186.108ZM62.1255 186.108H65.2981V278.908H62.1255V186.108ZM152 186.108H155.173V278.908H152V186.108ZM139.062 186.108H142.235V278.908H139.062V186.108ZM126.285 186.108H129.458V278.908H126.285V186.108ZM113.347 186.108H116.52V278.908H113.347V186.108ZM203.556 186.108H206.733V278.908H203.556V186.108ZM190.623 186.108H193.791V278.908H190.623V186.108ZM177.845 186.108H181.014V278.908H177.845V186.108Z" fill="#434955"/>
</g>
</g>
<path fill-rule="evenodd" clip-rule="evenodd" d="M101.863 179.116L135.725 219.548L108.36 234.968L87.4282 189.002L101.863 179.116ZM170.827 179.897L135.725 219.548L164.014 234.968L184.746 188.447L170.827 179.897Z" fill="#58B0E0"/>
<path fill-rule="evenodd" clip-rule="evenodd" d="M94.7978 100.504H122.644C123.546 100.503 124.439 100.681 125.273 101.027C126.106 101.372 126.863 101.879 127.5 102.517V102.526C128.138 103.162 128.644 103.918 128.99 104.749C129.335 105.581 129.514 106.473 129.514 107.374V119.93C129.512 121.751 128.787 123.497 127.499 124.785C126.211 126.073 124.465 126.798 122.644 126.8H94.7978C93.8974 126.799 93.0062 126.62 92.1751 126.273C91.344 125.927 90.5893 125.42 89.9542 124.782H89.9456C89.3074 124.145 88.8011 123.389 88.4556 122.556C88.11 121.724 87.932 120.831 87.9318 119.93V107.374C87.9324 106.473 88.1105 105.581 88.4561 104.749C88.8016 103.918 89.3078 103.162 89.9456 102.526L89.9542 102.517C90.5897 101.88 91.3445 101.374 92.1756 101.028C93.0067 100.683 93.8977 100.504 94.7978 100.504ZM122.644 104.193H94.7978C93.9566 104.194 93.1502 104.528 92.554 105.121L92.5496 105.13C91.9563 105.726 91.6225 106.533 91.6208 107.374V119.93C91.6211 120.347 91.7036 120.76 91.8637 121.145C92.0238 121.53 92.2584 121.879 92.554 122.174C93.1495 122.769 93.956 123.104 94.7978 123.107H122.644C123.485 123.103 124.291 122.768 124.886 122.172C125.482 121.577 125.817 120.771 125.821 119.93V107.374C125.821 106.531 125.487 105.723 124.892 105.126C124.597 104.83 124.247 104.595 123.861 104.435C123.475 104.275 123.062 104.193 122.644 104.193ZM150.833 100.504H178.679C179.58 100.504 180.473 100.682 181.305 101.027C182.138 101.373 182.894 101.879 183.531 102.517V102.526C184.17 103.162 184.677 103.917 185.023 104.749C185.369 105.581 185.548 106.473 185.549 107.374V119.93C185.547 121.751 184.822 123.497 183.534 124.785C182.246 126.073 180.5 126.798 178.679 126.8H150.833C149.932 126.799 149.04 126.62 148.208 126.274C147.376 125.927 146.621 125.42 145.985 124.782L145.981 124.773C144.692 123.49 143.966 121.748 143.962 119.93V107.374C143.964 106.473 144.143 105.581 144.489 104.749C144.835 103.917 145.342 103.162 145.981 102.526L145.989 102.522C147.272 101.233 149.015 100.508 150.833 100.504ZM178.679 104.193H150.833C150.416 104.192 150.003 104.274 149.618 104.433C149.233 104.593 148.883 104.827 148.589 105.121L148.585 105.13C148.29 105.424 148.056 105.774 147.896 106.159C147.737 106.544 147.655 106.957 147.656 107.374V119.93C147.655 120.347 147.737 120.759 147.897 121.144C148.056 121.529 148.29 121.879 148.585 122.174L148.589 122.178C148.883 122.473 149.233 122.707 149.618 122.866C150.003 123.025 150.416 123.107 150.833 123.107H178.679C179.52 123.103 180.326 122.768 180.921 122.172C181.516 121.577 181.852 120.771 181.856 119.93V107.374C181.856 106.531 181.522 105.723 180.927 105.126C180.633 104.83 180.279 104.596 179.894 104.436C179.509 104.276 179.096 104.193 178.679 104.193Z" fill="#464449"/>
<path d="M128.555 106.358H145.243V110.16H128.555V106.358Z" fill="#464449"/>
</svg>
